<svg
  viewBox="0 0 129 101"
  xmlns="http://www.w3.org/2000/svg"
>
  <title>Cockroach Labs</title>
  <path
    d="M36.06 97.25h8.45v2.28H33.37V80.45h2.69v16.8zM76 92.34c0 4.56-2.7 7.57-6.35 7.57a5.37 5.37 0 0 1-4.92-2.54v2.16h-2.37V80.45h2.52v6.71a5.38 5.38 0 0 1 4.77-2.4c3.71 0 6.35 3.01 6.35 7.58zm-2.58 0c0-3.25-1.64-5.45-4.15-5.45-2.51 0-4.48 2-4.48 5.45s1.9 5.41 4.48 5.41c2.58 0 4.15-2.17 4.15-5.41zM53.23 84.73a9.71 9.71 0 0 0-5.83 2.16v2.61c1.18-1 3.39-2.69 5.91-2.69a3.68 3.68 0 0 1 2.63.91 2.5 2.5 0 0 1 .51.75 1.571 1.571 0 0 1-1.17 2.16l-1.82.37c-3.6.64-6.7 1.64-6.7 5 0 2.87 2.34 4 5.15 4a5.62 5.62 0 0 0 4.89-2.25v1.78h2.28v-10c0-2.81-2.08-4.8-5.85-4.8zm3.45 7.39v2c0 2.37-2 3.77-4.51 3.77-1.84 0-3-.73-3-2a2.058 2.058 0 0 1 .61-1.54c1.48-1.45 5.71-1.42 6.9-2.23zM84.51 91.05c-2.63-.59-3.86-.88-3.86-2.14 0-1.26 1.2-2.13 3.16-2.13 1.73 0 2.9.45 5.24 2.2v-2.64a8.3 8.3 0 0 0-5.24-1.61c-3.34 0-5.59 1.76-5.59 4.27s1.4 3.25 5.24 4.07c2.31.49 4 .93 4 2.51 0 1.58-1.4 2.28-3.27 2.28s-2.93-.54-5.76-2.63V98a8.621 8.621 0 0 0 5.74 1.94c3.48 0 5.76-1.81 5.76-4.47 0-2.66-1.68-3.57-5.42-4.42zM31.58 69.26c0 4.51-2.93 7.61-7.11 7.61s-7.14-3.1-7.14-7.61 2.93-7.6 7.14-7.6c4.21 0 7.11 3.1 7.11 7.6zm-11.67 0c0 3.25 1.78 5.5 4.56 5.5 2.78 0 4.53-2.25 4.53-5.5s-1.75-5.5-4.53-5.5c-2.78 0-4.56 2.24-4.56 5.5zM70.15 64.45a6.624 6.624 0 0 0-1.91-.31c-1.93 0-3.36 1.67-3.36 4.6v7.72h-2.52V62.07h2.37v2.16a3.9 3.9 0 0 1 3.57-2.4 4.19 4.19 0 0 1 1.85.35v2.27zM85.21 69.26c0 4.51-2.92 7.61-7.11 7.61s-7.1-3.1-7.1-7.61 2.92-7.6 7.13-7.6 7.08 3.1 7.08 7.6zm-11.67 0c0 3.25 1.79 5.5 4.56 5.5 2.77 0 4.54-2.25 4.54-5.5s-1.76-5.5-4.54-5.5c-2.78 0-4.56 2.24-4.56 5.5zM93.91 61.66a9.64 9.64 0 0 0-5.83 2.16v2.6c1.18-1 3.39-2.69 5.92-2.69a3.63 3.63 0 0 1 2.62.92c.217.215.39.47.51.75A1.572 1.572 0 0 1 96 67.56l-1.83.33c-3.6.64-6.7 1.64-6.7 5 0 2.87 2.34 4 5.15 4a5.59 5.59 0 0 0 4.89-2.26v1.79h2.28v-10c-.03-2.77-2.08-4.76-5.88-4.76zm3.45 7.39v2c0 2.37-2 3.77-4.51 3.77-1.84 0-2.95-.73-2.95-2a2.08 2.08 0 0 1 .61-1.54c1.43-1.45 5.66-1.43 6.85-2.23zM128.54 66.6v9.86H126v-9.07c0-2.37-1.17-3.6-3.31-3.6a3.669 3.669 0 0 0-3.69 3.75v8.92h-2.52V57.38H119v6.33a5.18 5.18 0 0 1 4.38-2.05c3.49 0 5.16 2.25 5.16 4.94zM44.51 73.33a7.41 7.41 0 0 1-3.76 1.24c-3.76 0-4.41-3.93-4.41-5.34 0-.78.26-5.31 4.52-5.31a8.54 8.54 0 0 1 3.65.94v-2.28a7.788 7.788 0 0 0-3.77-1c-4.43 0-7 3.61-7 7.49 0 6.73 5 7.76 6.88 7.76a7.58 7.58 0 0 0 3.88-1l.01-2.5zM113.35 73.33a7.363 7.363 0 0 1-3.75 1.24c-3.77 0-4.41-3.93-4.41-5.34 0-.78.26-5.31 4.52-5.31a8.472 8.472 0 0 1 3.64.94v-2.28a7.76 7.76 0 0 0-3.76-1c-4.43 0-7 3.61-7 7.49 0 6.73 5 7.76 6.87 7.76a7.53 7.53 0 0 0 3.88-1l.01-2.5zM57.57 76.46h2.81l-5.78-8.65a24.931 24.931 0 0 0 3.57-5.74h-2.76a22 22 0 0 1-5.24 6.73V57.38h-2.52v19.08h2.52V72A25.137 25.137 0 0 0 53 69.56l4.57 6.9zM9 74.43c-6.46 0-6.36-6.74-6.36-7.52 0-7.18 5.43-7.38 6.58-7.38a8.42 8.42 0 0 1 5.71 2.27v-2.93A9.77 9.77 0 0 0 9.23 57C5.8 57 0 59.09 0 66.91a12.28 12.28 0 0 0 1.52 5.83A8.16 8.16 0 0 0 9 76.86a9.19 9.19 0 0 0 5.93-2.08v-2.92c-2.15 1.68-3.3 2.57-5.93 2.57zM75 30.73a24.78 24.78 0 0 0-8.51-25.28A22.2 22.2 0 0 1 81.93 3l.61-2.5a25.14 25.14 0 0 0-5-.5 24.6 24.6 0 0 0-13.27 3.86A24.58 24.58 0 0 0 51 0c-1.68 0-3.354.167-5 .5l.61 2.5a22.2 22.2 0 0 1 15.44 2.5 24.75 24.75 0 0 0 1.51 39.71l.71.49.71-.49A24.82 24.82 0 0 0 75 30.73zM63 41.57a22.259 22.259 0 0 1-6.68-23.46A25.118 25.118 0 0 0 61 23.77a6.05 6.05 0 0 1 2 4.53v13.27zm1.27-18.37a22.19 22.19 0 0 1-4.45-4.42 6.14 6.14 0 0 1 0-7.43 22.08 22.08 0 0 1 4.46-4.44 22.46 22.46 0 0 1 4.52 4.51 6.09 6.09 0 0 1 0 7.29 22.058 22.058 0 0 1-4.53 4.49zm1.26 18.37V28.3a6.05 6.05 0 0 1 2-4.53 25.12 25.12 0 0 0 4.67-5.66 22.002 22.002 0 0 1 1 6.64 22.24 22.24 0 0 1-7.67 16.82z"
    fill="currentColor"
  />
</svg>