<svg
  viewBox="0 0 301 43"
  xmlns="http://www.w3.org/2000/svg"
>
  <title>Cockroach Labs</title>
  <path
    d="M85.5 24.25c0 5.88-3.82 9.93-9.29 9.93-5.47 0-9.32-4.05-9.32-9.93s3.82-9.94 9.32-9.94 9.29 4.05 9.29 9.94zm-15.25 0c0 4.24 2.33 7.18 6 7.18s5.93-2.94 5.93-7.18-2.3-7.19-5.93-7.19-6 2.94-6 7.19zM135.89 18a9.197 9.197 0 0 0-2.49-.39c-2.52 0-4.4 2.18-4.4 6v10.04h-3.28V14.84h3.09v2.83a5.083 5.083 0 0 1 4.66-3.14 5.29 5.29 0 0 1 2.41.47l.01 3zM155.57 24.25c0 5.88-3.82 9.93-9.29 9.93-5.47 0-9.28-4.05-9.28-9.93s3.82-9.94 9.32-9.94 9.25 4.05 9.25 9.94zm-15.25 0c0 4.24 2.33 7.18 6 7.18s5.92-2.94 5.92-7.18-2.29-7.19-5.92-7.19-6 2.94-6 7.19zM166.93 14.31a12.63 12.63 0 0 0-7.62 2.83v3.4c1.54-1.25 4.43-3.54 7.69-3.54a4.75 4.75 0 0 1 3.43 1.2c.285.286.509.626.66 1a1.997 1.997 0 0 1-.645 2.448c-.248.18-.534.3-.835.352l-2.38.43c-4.7.84-8.75 2.14-8.75 6.53 0 3.75 3.06 5.28 6.73 5.28 2.82 0 5.12-1 6.38-2.94v2.33h3V20.58c-.02-3.67-2.7-6.27-7.66-6.27zm4.51 9.69v2.64c0 3.1-2.64 4.93-5.89 4.93-2.41 0-3.86-.95-3.86-2.67a2.68 2.68 0 0 1 .8-2c1.87-1.9 7.4-1.9 8.95-2.9zM212.17 20.77v12.88h-3.28V21.8c0-3.1-1.53-4.7-4.32-4.7a4.8 4.8 0 0 0-4.86 4.9v11.65h-3.28V8.72h3.28V17a6.839 6.839 0 0 1 5.74-2.67c4.55-.02 6.72 2.92 6.72 6.44zM229.6 30.67h11v3h-14.52V8.72h3.52v21.95zM281.77 24.25c0 6-3.52 9.89-8.29 9.89a7.002 7.002 0 0 1-6.42-3.32v2.83H264V8.72h3.29v8.76a6.998 6.998 0 0 1 6.23-3.13c4.81 0 8.25 3.93 8.25 9.9zm-3.36 0c0-4.25-2.14-7.11-5.43-7.11-3.29 0-5.85 2.63-5.85 7.11s2.49 7.07 5.85 7.07c3.36 0 5.43-2.83 5.43-7.07zM102.39 29.55a9.64 9.64 0 0 1-4.9 1.63c-4.93 0-5.77-5.13-5.77-7 0-1 .34-6.94 5.91-6.94 1.659.05 3.285.47 4.76 1.23v-3a10.161 10.161 0 0 0-4.92-1.28c-5.79 0-9.13 4.73-9.13 9.79 0 8.79 6.57 10.14 9 10.14a9.91 9.91 0 0 0 5.07-1.34l-.02-3.23zM192.33 29.55a9.64 9.64 0 0 1-4.9 1.63c-4.92 0-5.76-5.13-5.76-7 0-1 .34-6.94 5.9-6.94 1.658.05 3.285.47 4.76 1.23v-3a10.131 10.131 0 0 0-4.91-1.28c-5.8 0-9.14 4.73-9.14 9.79 0 8.79 6.57 10.14 9 10.14a9.911 9.911 0 0 0 5.07-1.34l-.02-3.23zM119.45 33.65h3.67l-7.55-11.3a31.723 31.723 0 0 0 4.66-7.51h-3.58a28.644 28.644 0 0 1-6.85 8.8V8.72h-3.3v24.93h3.29v-5.88a32.556 32.556 0 0 0 3.68-3.14l5.98 9.02zM252 14.31a12.609 12.609 0 0 0-7.61 2.83v3.4c1.61-1.25 4.45-3.54 7.75-3.54a4.71 4.71 0 0 1 3.42 1.2c.287.286.515.626.67 1a2.003 2.003 0 0 1-.673 2.46 1.998 1.998 0 0 1-.847.34l-2.38.43c-4.7.84-8.75 2.14-8.75 6.53 0 3.75 3.06 5.28 6.72 5.28 2.83 0 5.13-1 6.39-2.94v2.33h3V20.58c-.02-3.67-2.69-6.27-7.69-6.27zm4.53 9.69v2.64c0 3.1-2.63 4.93-5.88 4.93-2.41 0-3.86-.95-3.86-2.67a2.704 2.704 0 0 1 .79-2c1.88-1.9 7.42-1.9 8.95-2.9zM292.89 22.56c-3.44-.76-5-1.14-5-2.79 0-1.65 1.52-2.77 4.11-2.77 2.27 0 3.79.6 6.86 2.88v-3.47a10.891 10.891 0 0 0-6.86-2.1c-4.35 0-7.29 2.29-7.29 5.58 0 3.13 1.83 4.24 6.84 5.31 3 .65 5.27 1.22 5.27 3.29 0 1.87-1.83 3-4.28 3s-3.86-.73-7.54-3.49v3.62a11.258 11.258 0 0 0 7.49 2.54c4.55 0 7.53-2.37 7.53-5.85-.02-3.31-2.24-4.64-7.13-5.75zM56 31c-8.43 0-8.3-8.81-8.3-9.83 0-9.38 7.09-9.65 8.59-9.65a11 11 0 0 1 7.47 3v-3.85a12.77 12.77 0 0 0-7.46-2.44c-4.48 0-12.06 2.72-12.06 12.94a16.09 16.09 0 0 0 2 7.62A10.67 10.67 0 0 0 56 34.17a12 12 0 0 0 7.76-2.72v-3.81C61 29.83 59.44 31 56 31zM27 28.6a23 23 0 0 0-7.93-23.52 20.53 20.53 0 0 1 10.29-2.74 21.3 21.3 0 0 1 4.08.4L34 .47a23.09 23.09 0 0 0-17 3.12A22.9 22.9 0 0 0 4.65 0C3.088 0 1.53.157 0 .47l.57 2.27a21.22 21.22 0 0 1 4.08-.4 20.53 20.53 0 0 1 10.29 2.74 23 23 0 0 0 1.4 37l.66.45.66-.45A23 23 0 0 0 27 28.6zM15.83 38.69a20.73 20.73 0 0 1-6.22-21.84A23.186 23.186 0 0 0 14 22.12a5.66 5.66 0 0 1 1.87 4.22l-.04 12.35zM17 21.59a20.668 20.668 0 0 1-4.14-4.11 5.72 5.72 0 0 1 0-6.92A20.82 20.82 0 0 1 17 6.43a20.69 20.69 0 0 1 4.21 4.2 5.65 5.65 0 0 1 0 6.78A20.797 20.797 0 0 1 17 21.59zm1.17 17.1V26.34A5.699 5.699 0 0 1 20 22.12a22.927 22.927 0 0 0 4.35-5.27 20.66 20.66 0 0 1-6.22 21.84h.04z"
    fill="currentColor"
  />
</svg>