<svg width="512" height="512" viewBox="0 0 512 512" fill="none" xmlns="http://www.w3.org/2000/svg">
<rect width="512" height="512" fill="white"/>
<rect x="6" y="6" width="500" height="500" rx="5" fill="#333333"/>
<rect x="22" y="404" width="468" height="86" rx="5" fill="#D9D9D9"/>
<g filter="url(#filter0_d_201_120)">
<rect x="307" y="411" width="20" height="20" rx="3" fill="white"/>
<rect x="307.5" y="411.5" width="19" height="19" rx="2.5" stroke="#D9D9D9"/>
</g>
<g filter="url(#filter1_d_201_120)">
<rect x="333" y="411" width="20" height="20" rx="3" fill="white"/>
<rect x="333.5" y="411.5" width="19" height="19" rx="2.5" stroke="#D9D9D9"/>
</g>
<g filter="url(#filter2_d_201_120)">
<rect x="359" y="411" width="20" height="20" rx="3" fill="white"/>
<rect x="359.5" y="411.5" width="19" height="19" rx="2.5" stroke="#D9D9D9"/>
</g>
<g filter="url(#filter3_d_201_120)">
<rect x="385" y="411" width="20" height="20" rx="3" fill="white"/>
<rect x="385.5" y="411.5" width="19" height="19" rx="2.5" stroke="#D9D9D9"/>
</g>
<g filter="url(#filter4_d_201_120)">
<rect x="411" y="411" width="20" height="20" rx="3" fill="white"/>
<rect x="411.5" y="411.5" width="19" height="19" rx="2.5" stroke="#D9D9D9"/>
</g>
<g filter="url(#filter5_d_201_120)">
<rect x="437" y="411" width="20" height="20" rx="3" fill="#F96E87"/>
<rect x="437.5" y="411.5" width="19" height="19" rx="2.5" stroke="#D9D9D9"/>
</g>
<g filter="url(#filter6_d_201_120)">
<rect x="463" y="411" width="20" height="20" rx="3" fill="white"/>
<rect x="463.5" y="411.5" width="19" height="19" rx="2.5" stroke="#D9D9D9"/>
</g>
<g filter="url(#filter7_d_201_120)">
<rect x="307" y="437" width="20" height="20" rx="3" fill="white"/>
<rect x="307.5" y="437.5" width="19" height="19" rx="2.5" stroke="#D9D9D9"/>
</g>
<g filter="url(#filter8_d_201_120)">
<rect x="333" y="437" width="20" height="20" rx="3" fill="#FFF065"/>
<rect x="333.5" y="437.5" width="19" height="19" rx="2.5" stroke="#D9D9D9"/>
</g>
<g filter="url(#filter9_d_201_120)">
<rect x="359" y="437" width="20" height="20" rx="3" fill="white"/>
<rect x="359.5" y="437.5" width="19" height="19" rx="2.5" stroke="#D9D9D9"/>
</g>
<g filter="url(#filter10_d_201_120)">
<rect x="385" y="437" width="20" height="20" rx="3" fill="#97F15F"/>
<rect x="385.5" y="437.5" width="19" height="19" rx="2.5" stroke="#D9D9D9"/>
</g>
<g filter="url(#filter11_d_201_120)">
<rect x="411" y="437" width="20" height="20" rx="3" fill="white"/>
<rect x="411.5" y="437.5" width="19" height="19" rx="2.5" stroke="#D9D9D9"/>
</g>
<g filter="url(#filter12_d_201_120)">
<rect x="437" y="437" width="20" height="20" rx="3" fill="white"/>
<rect x="437.5" y="437.5" width="19" height="19" rx="2.5" stroke="#D9D9D9"/>
</g>
<g filter="url(#filter13_d_201_120)">
<rect x="463" y="437" width="20" height="20" rx="3" fill="white"/>
<rect x="463.5" y="437.5" width="19" height="19" rx="2.5" stroke="#D9D9D9"/>
</g>
<g filter="url(#filter14_d_201_120)">
<rect x="307" y="463" width="20" height="20" rx="3" fill="white"/>
<rect x="307.5" y="463.5" width="19" height="19" rx="2.5" stroke="#D9D9D9"/>
</g>
<g filter="url(#filter15_d_201_120)">
<rect x="333" y="463" width="20" height="20" rx="3" fill="white"/>
<rect x="333.5" y="463.5" width="19" height="19" rx="2.5" stroke="#D9D9D9"/>
</g>
<g filter="url(#filter16_d_201_120)">
<rect x="359" y="463" width="20" height="20" rx="3" fill="white"/>
<rect x="359.5" y="463.5" width="19" height="19" rx="2.5" stroke="#D9D9D9"/>
</g>
<g filter="url(#filter17_d_201_120)">
<rect x="385" y="463" width="20" height="20" rx="3" fill="white"/>
<rect x="385.5" y="463.5" width="19" height="19" rx="2.5" stroke="#D9D9D9"/>
</g>
<g filter="url(#filter18_d_201_120)">
<rect x="411" y="463" width="20" height="20" rx="3" fill="white"/>
<rect x="411.5" y="463.5" width="19" height="19" rx="2.5" stroke="#D9D9D9"/>
</g>
<g filter="url(#filter19_d_201_120)">
<rect x="437" y="463" width="20" height="20" rx="3" fill="#FFF065"/>
<rect x="437.5" y="463.5" width="19" height="19" rx="2.5" stroke="#D9D9D9"/>
</g>
<g filter="url(#filter20_d_201_120)">
<rect x="463" y="463" width="20" height="20" rx="3" fill="white"/>
<rect x="463.5" y="463.5" width="19" height="19" rx="2.5" stroke="#D9D9D9"/>
</g>
<path d="M255 450.75V426.375M255 450.75C255.995 450.75 256.948 451.145 257.652 451.848C258.355 452.552 258.75 453.505 258.75 454.5C258.75 455.495 258.355 456.448 257.652 457.152C256.948 457.855 255.995 458.25 255 458.25M255 450.75C254.005 450.75 253.052 451.145 252.348 451.848C251.645 452.552 251.25 453.505 251.25 454.5C251.25 455.495 251.645 456.448 252.348 457.152C253.052 457.855 254.005 458.25 255 458.25M255 458.25V467.625M285 450.75V426.375M285 450.75C285.995 450.75 286.948 451.145 287.652 451.848C288.355 452.552 288.75 453.505 288.75 454.5C288.75 455.495 288.355 456.448 287.652 457.152C286.948 457.855 285.995 458.25 285 458.25M285 450.75C284.005 450.75 283.052 451.145 282.348 451.848C281.645 452.552 281.25 453.505 281.25 454.5C281.25 455.495 281.645 456.448 282.348 457.152C283.052 457.855 284.005 458.25 285 458.25M285 458.25V467.625M270 435.75V426.375M270 435.75C270.995 435.75 271.948 436.145 272.652 436.848C273.355 437.552 273.75 438.505 273.75 439.5C273.75 440.495 273.355 441.448 272.652 442.152C271.948 442.855 270.995 443.25 270 443.25M270 435.75C269.005 435.75 268.052 436.145 267.348 436.848C266.645 437.552 266.25 438.505 266.25 439.5C266.25 440.495 266.645 441.448 267.348 442.152C268.052 442.855 269.005 443.25 270 443.25M270 443.25V467.625" stroke="#333333" stroke-width="2" stroke-linecap="round" stroke-linejoin="round"/>
<g filter="url(#filter21_d_201_120)">
<rect x="212" y="451" width="28" height="28" rx="14" fill="#F5F5F5"/>
<rect x="213" y="452" width="26" height="26" rx="13" stroke="#333333" stroke-width="2"/>
</g>
<path d="M217 456L235 474M232.201 466.107C232.266 465.742 232.299 465.371 232.3 465V463.2M219.7 463.2V465C219.682 466.259 220.041 467.495 220.732 468.548C221.423 469.601 222.414 470.423 223.576 470.907C224.739 471.391 226.02 471.516 227.254 471.265C228.488 471.015 229.619 470.4 230.5 469.5M228.7 462.606V458.7C228.696 458.094 228.489 457.506 228.111 457.032C227.733 456.558 227.206 456.226 226.616 456.087C226.025 455.949 225.406 456.014 224.856 456.27C224.307 456.527 223.86 456.961 223.588 457.503M223.3 462.3V465C223.3 465.534 223.459 466.055 223.756 466.499C224.052 466.942 224.474 467.288 224.967 467.492C225.46 467.696 226.003 467.75 226.526 467.646C227.05 467.542 227.53 467.285 227.908 466.908M226 471.3V474" stroke="#333333" stroke-width="2" stroke-linecap="round" stroke-linejoin="round"/>
<g filter="url(#filter22_d_201_120)">
<rect x="212" y="415" width="28" height="28" rx="14" fill="#F5F5F5"/>
<rect x="213" y="416" width="26" height="26" rx="13" stroke="#E31414" stroke-width="2"/>
</g>
<path fill-rule="evenodd" clip-rule="evenodd" d="M220.167 424.063C220.167 422.954 221.356 422.251 222.328 422.786L231.304 427.723C232.311 428.277 232.311 429.724 231.304 430.278L222.329 435.215C221.357 435.75 220.167 435.046 220.167 433.937L220.167 424.063Z" fill="#DE1616"/>
<g filter="url(#filter23_d_201_120)">
<rect x="29" y="411" width="20" height="20" rx="3" fill="#97F15F"/>
<rect x="29.5" y="411.5" width="19" height="19" rx="2.5" stroke="#D9D9D9"/>
</g>
<g filter="url(#filter24_d_201_120)">
<rect x="55" y="411" width="20" height="20" rx="3" fill="white"/>
<rect x="55.5" y="411.5" width="19" height="19" rx="2.5" stroke="#D9D9D9"/>
</g>
<g filter="url(#filter25_d_201_120)">
<rect x="81" y="411" width="20" height="20" rx="3" fill="#F96E87"/>
<rect x="81.5" y="411.5" width="19" height="19" rx="2.5" stroke="#D9D9D9"/>
</g>
<g filter="url(#filter26_d_201_120)">
<rect x="107" y="411" width="20" height="20" rx="3" fill="white"/>
<rect x="107.5" y="411.5" width="19" height="19" rx="2.5" stroke="#D9D9D9"/>
</g>
<g filter="url(#filter27_d_201_120)">
<rect x="133" y="411" width="20" height="20" rx="3" fill="white"/>
<rect x="133.5" y="411.5" width="19" height="19" rx="2.5" stroke="#D9D9D9"/>
</g>
<g filter="url(#filter28_d_201_120)">
<rect x="159" y="411" width="20" height="20" rx="3" fill="white"/>
<rect x="159.5" y="411.5" width="19" height="19" rx="2.5" stroke="#D9D9D9"/>
</g>
<g filter="url(#filter29_d_201_120)">
<rect x="185" y="411" width="20" height="20" rx="3" fill="white"/>
<rect x="185.5" y="411.5" width="19" height="19" rx="2.5" stroke="#D9D9D9"/>
</g>
<g filter="url(#filter30_d_201_120)">
<rect x="29" y="437" width="20" height="20" rx="3" fill="white"/>
<rect x="29.5" y="437.5" width="19" height="19" rx="2.5" stroke="#D9D9D9"/>
</g>
<g filter="url(#filter31_d_201_120)">
<rect x="55" y="437" width="20" height="20" rx="3" fill="#FFF065"/>
<rect x="55.5" y="437.5" width="19" height="19" rx="2.5" stroke="#D9D9D9"/>
</g>
<g filter="url(#filter32_d_201_120)">
<rect x="81" y="437" width="20" height="20" rx="3" fill="white"/>
<rect x="81.5" y="437.5" width="19" height="19" rx="2.5" stroke="#D9D9D9"/>
</g>
<g filter="url(#filter33_d_201_120)">
<rect x="107" y="437" width="20" height="20" rx="3" fill="white"/>
<rect x="107.5" y="437.5" width="19" height="19" rx="2.5" stroke="#D9D9D9"/>
</g>
<g filter="url(#filter34_d_201_120)">
<rect x="133" y="437" width="20" height="20" rx="3" fill="#97F15F"/>
<rect x="133.5" y="437.5" width="19" height="19" rx="2.5" stroke="#D9D9D9"/>
</g>
<g filter="url(#filter35_d_201_120)">
<rect x="159" y="437" width="20" height="20" rx="3" fill="white"/>
<rect x="159.5" y="437.5" width="19" height="19" rx="2.5" stroke="#D9D9D9"/>
</g>
<g filter="url(#filter36_d_201_120)">
<rect x="185" y="437" width="20" height="20" rx="3" fill="white"/>
<rect x="185.5" y="437.5" width="19" height="19" rx="2.5" stroke="#D9D9D9"/>
</g>
<g filter="url(#filter37_d_201_120)">
<rect x="29" y="463" width="20" height="20" rx="3" fill="white"/>
<rect x="29.5" y="463.5" width="19" height="19" rx="2.5" stroke="#D9D9D9"/>
</g>
<g filter="url(#filter38_d_201_120)">
<rect x="55" y="463" width="20" height="20" rx="3" fill="white"/>
<rect x="55.5" y="463.5" width="19" height="19" rx="2.5" stroke="#D9D9D9"/>
</g>
<g filter="url(#filter39_d_201_120)">
<rect x="81" y="463" width="20" height="20" rx="3" fill="#97F15F"/>
<rect x="81.5" y="463.5" width="19" height="19" rx="2.5" stroke="#D9D9D9"/>
</g>
<g filter="url(#filter40_d_201_120)">
<rect x="107" y="463" width="20" height="20" rx="3" fill="white"/>
<rect x="107.5" y="463.5" width="19" height="19" rx="2.5" stroke="#D9D9D9"/>
</g>
<g filter="url(#filter41_d_201_120)">
<rect x="133" y="463" width="20" height="20" rx="3" fill="white"/>
<rect x="133.5" y="463.5" width="19" height="19" rx="2.5" stroke="#D9D9D9"/>
</g>
<g filter="url(#filter42_d_201_120)">
<rect x="159" y="463" width="20" height="20" rx="3" fill="#F96E87"/>
<rect x="159.5" y="463.5" width="19" height="19" rx="2.5" stroke="#D9D9D9"/>
</g>
<g filter="url(#filter43_d_201_120)">
<rect x="185" y="463" width="20" height="20" rx="3" fill="white"/>
<rect x="185.5" y="463.5" width="19" height="19" rx="2.5" stroke="#D9D9D9"/>
</g>
<mask id="mask0_201_120" style="mask-type:luminance" maskUnits="userSpaceOnUse" x="298" y="272" width="192" height="108">
<rect x="298" y="272" width="192" height="108" rx="15" fill="white"/>
</mask>
<g mask="url(#mask0_201_120)">
<path d="M298 246.667H490V390.667H298V246.667Z" fill="#131313"/>
<path d="M298 246.667H325.429V342.667H298V246.667Z" fill="#C0C0C0"/>
<path d="M325.429 246.667H352.857V342.667H325.429V246.667Z" fill="#C0C000"/>
<path d="M352.857 246.667H380.286V342.667H352.857V246.667Z" fill="#00C0C0"/>
<path d="M380.286 246.667H407.714V342.667H380.286V246.667Z" fill="#00C000"/>
<path d="M407.714 246.667H435.143V342.667H407.714V246.667Z" fill="#C000C0"/>
<path d="M435.143 246.667H462.571V342.667H435.143V246.667Z" fill="#C00000"/>
<path d="M462.571 246.667H490V342.667H462.571V246.667ZM298 342.667H325.429V354.667H298V342.667Z" fill="#0000C0"/>
<path d="M352.857 342.667H380.286V354.667H352.857L352.857 342.667Z" fill="#C000C0"/>
<path d="M407.714 342.667H435.143V354.667H407.714V342.667Z" fill="#00C0C0"/>
<path d="M462.571 342.667H490V354.667H462.571L462.571 342.667Z" fill="#C0C0C0"/>
<path d="M298 354.667H332.286V390.667H298V354.667Z" fill="#00214C"/>
<path d="M332.286 354.667H366.571V390.667H332.286V354.667Z" fill="white"/>
<path d="M366.571 354.667H400.857V390.667H366.571V354.667Z" fill="#32006A"/>
<path d="M435.143 354.667H444.286V390.667H435.143V354.667Z" fill="#090909"/>
<path d="M453.429 354.667H462.571L462.571 390.667H453.429V354.667Z" fill="#1D1D1D"/>
</g>
<g filter="url(#filter44_d_201_120)">
<g filter="url(#filter45_d_201_120)">
<rect x="238" y="332" width="36" height="36" rx="5" fill="#FF0000"/>
</g>
<path d="M267.498 344.186C267.362 343.675 267.095 343.209 266.723 342.834C266.35 342.459 265.886 342.189 265.376 342.05C263.505 341.545 256 341.545 256 341.545C256 341.545 248.495 341.545 246.623 342.05C246.113 342.189 245.649 342.46 245.277 342.835C244.905 343.209 244.638 343.675 244.502 344.186C244 346.07 244 350 244 350C244 350 244 353.93 244.502 355.814C244.638 356.325 244.905 356.791 245.277 357.166C245.65 357.541 246.114 357.811 246.624 357.95C248.495 358.455 256 358.455 256 358.455C256 358.455 263.505 358.455 265.377 357.95C265.887 357.811 266.351 357.541 266.724 357.166C267.096 356.791 267.364 356.325 267.499 355.814C268 353.93 268 350 268 350C268 350 268 346.07 267.498 344.186ZM253.545 353.568V346.432L259.818 350L253.545 353.568Z" fill="white"/>
</g>
<g filter="url(#filter46_d_201_120)">
<g filter="url(#filter47_d_201_120)">
<rect x="238" y="284" width="36" height="36" rx="5" fill="#9146FF"/>
</g>
<path d="M255.571 294.714H257.286V299.857H255.57L255.571 294.714ZM260.286 294.714H262V299.857H260.286V294.714ZM250 290L245.714 294.286V309.714H250.857V314L255.143 309.714H258.571L266.286 302V290H250ZM264.571 301.143L261.143 304.571H257.714L254.714 307.571V304.571H250.857V291.714H264.571V301.143Z" fill="white"/>
</g>
<mask id="mask1_201_120" style="mask-type:luminance" maskUnits="userSpaceOnUse" x="22" y="272" width="192" height="108">
<rect x="22" y="272" width="192" height="108" rx="15" fill="white"/>
</mask>
<g mask="url(#mask1_201_120)">
<path d="M22 246.667H214V390.667H22V246.667Z" fill="#131313"/>
<path d="M22 246.667H49.4286V342.667H22V246.667Z" fill="#C0C0C0"/>
<path d="M49.4286 246.667H76.8571V342.667H49.4286V246.667Z" fill="#C0C000"/>
<path d="M76.8571 246.667H104.286V342.667H76.8571V246.667Z" fill="#00C0C0"/>
<path d="M104.286 246.667H131.714V342.667H104.286V246.667Z" fill="#00C000"/>
<path d="M131.714 246.667H159.143V342.667H131.714V246.667Z" fill="#C000C0"/>
<path d="M159.143 246.667H186.571V342.667H159.143V246.667Z" fill="#C00000"/>
<path d="M186.571 246.667H214V342.667H186.571V246.667ZM22 342.667H49.4286V354.667H22V342.667Z" fill="#0000C0"/>
<path d="M76.8571 342.667H104.286V354.667H76.8571L76.8571 342.667Z" fill="#C000C0"/>
<path d="M131.714 342.667H159.143V354.667H131.714V342.667Z" fill="#00C0C0"/>
<path d="M186.571 342.667H214V354.667H186.571L186.571 342.667Z" fill="#C0C0C0"/>
<path d="M22 354.667H56.2857V390.667H22V354.667Z" fill="#00214C"/>
<path d="M56.2857 354.667H90.5714V390.667H56.2857V354.667Z" fill="white"/>
<path d="M90.5714 354.667H124.857V390.667H90.5714V354.667Z" fill="#32006A"/>
<path d="M159.143 354.667H168.286V390.667H159.143V354.667Z" fill="#090909"/>
<path d="M177.429 354.667H186.571L186.571 390.667H177.429V354.667Z" fill="#1D1D1D"/>
</g>
<mask id="mask2_201_120" style="mask-type:luminance" maskUnits="userSpaceOnUse" x="48" y="22" width="416" height="234">
<rect x="48" y="22" width="416" height="234" rx="15" fill="white"/>
</mask>
<g mask="url(#mask2_201_120)">
<rect x="48" y="22" width="416" height="234" fill="url(#paint0_linear_201_120)"/>
<g filter="url(#filter48_d_201_120)">
<path d="M130.544 156.064C130.544 157.408 131.216 158.464 132.56 159.232C133.968 160 136.144 160.832 139.088 161.728C142.608 162.88 145.488 164 147.728 165.088C150.032 166.176 152.016 167.872 153.68 170.176C155.408 172.48 156.272 175.488 156.272 179.2C156.272 191.104 148.528 197.056 133.04 197.056C130.48 197.056 127.344 196.832 123.632 196.384C119.984 195.936 116.656 195.36 113.648 194.656C113.776 193.312 114.032 191.36 114.416 188.8C114.864 186.176 115.28 184.224 115.664 182.944C117.904 183.264 121.264 183.648 125.744 184.096C130.288 184.544 133.712 184.768 136.016 184.768C137.36 184.768 138.16 184.672 138.416 184.48C138.8 184.224 139.088 183.808 139.28 183.232C139.536 182.592 139.664 182.048 139.664 181.6C139.664 180.32 139.056 179.36 137.84 178.72C136.624 178.016 134.544 177.184 131.6 176.224C128.08 175.136 125.168 174.016 122.864 172.864C120.56 171.712 118.544 169.92 116.816 167.488C115.088 165.056 114.224 161.856 114.224 157.888C114.224 155.072 114.864 152.32 116.144 149.632C117.424 146.88 118.736 145.024 120.08 144.064C121.104 143.36 123.216 142.688 126.416 142.048C129.616 141.408 132.624 141.088 135.44 141.088C142.608 141.088 148.464 141.76 153.008 143.104C152.944 144.384 152.72 146.144 152.336 148.384C152.016 150.624 151.664 152.672 151.28 154.528L149.072 154.432C140.752 153.856 135.44 153.568 133.136 153.568C132.176 153.568 131.632 153.6 131.504 153.664C131.248 153.792 131.024 154.08 130.832 154.528C130.64 154.976 130.544 155.488 130.544 156.064ZM180.788 177.856C180.788 179.008 180.82 180.224 180.884 181.504C180.948 182.72 181.14 183.488 181.46 183.808C181.908 184.256 183.476 184.48 186.164 184.48L189.428 184.384C190.004 187.456 190.292 191.008 190.292 195.04C189.076 195.488 187.284 195.904 184.916 196.288C182.612 196.672 180.404 196.864 178.292 196.864C173.876 196.864 170.452 195.904 168.02 193.984C165.652 192 164.468 188.96 164.468 184.864V161.248H157.268V152.512L164.468 151.84L168.788 141.28L180.788 140.608V151.84H190.964V161.248H180.788V177.856ZM223.234 150.88C224.066 150.88 224.93 150.976 225.826 151.168C226.786 151.36 227.49 151.584 227.938 151.84C227.938 153.248 227.778 155.584 227.458 158.848C227.138 162.048 226.85 164.32 226.594 165.664C225.954 165.6 224.77 165.568 223.042 165.568C219.01 165.568 215.426 165.792 212.29 166.24V196H195.874V151.84H209.602L211.522 158.944H211.618C213.474 156.512 215.458 154.56 217.57 153.088C219.682 151.616 221.57 150.88 223.234 150.88ZM259.033 184.48C260.633 184.48 263.609 184.32 267.961 184C268.537 184 269.593 183.936 271.129 183.808L272.569 193.696C267.641 196 261.241 197.152 253.369 197.152C246.009 197.152 240.345 195.296 236.377 191.584C232.473 187.872 230.521 182.272 230.521 174.784C230.521 170.944 231.001 167.232 231.961 163.648C232.985 160.064 234.137 157.568 235.417 156.16C236.761 154.752 239.257 153.536 242.905 152.512C246.553 151.488 250.169 150.976 253.753 150.976C259.513 150.976 263.833 152 266.713 154.048C269.593 156.096 271.481 158.944 272.377 162.592C273.273 166.176 273.721 171.008 273.721 177.088C269.369 177.344 265.113 177.472 260.953 177.472H247.321C247.321 179.52 247.737 181.056 248.569 182.08C249.465 183.104 250.713 183.776 252.312 184.096C253.913 184.352 256.153 184.48 259.033 184.48ZM248.281 162.4C247.897 162.592 247.609 163.424 247.417 164.896C247.225 166.368 247.097 168.032 247.033 169.888H252.025C255.033 169.888 257.209 169.856 258.553 169.792C258.553 166.72 258.105 164.544 257.209 163.264C256.377 161.984 254.905 161.344 252.793 161.344C251.065 161.344 249.561 161.696 248.281 162.4ZM305.803 196L304.267 189.952C301.323 194.752 297.227 197.152 291.979 197.152C287.691 197.152 284.171 195.968 281.419 193.6C278.731 191.168 277.387 187.776 277.387 183.424C277.387 180.736 278.155 178.4 279.691 176.416C281.291 174.368 283.467 172.928 286.219 172.096C289.803 171.072 295.339 170.496 302.827 170.368C302.827 166.144 302.635 163.904 302.251 163.648C301.931 163.392 300.907 163.264 299.179 163.264C298.091 163.264 296.587 163.328 294.667 163.456C291.595 163.584 287.435 163.936 282.187 164.512C281.675 161.056 281.291 157.344 281.035 153.376C284.427 152.672 287.979 152.096 291.691 151.648C295.403 151.136 298.731 150.88 301.675 150.88C306.795 150.88 310.635 151.744 313.195 153.472C315.755 155.136 317.419 157.344 318.187 160.096C318.955 162.848 319.307 166.336 319.243 170.56L319.147 184.672L319.435 196H305.803ZM297.547 186.4C299.211 186.4 300.971 186.08 302.827 185.44V178.336H302.059C297.323 178.336 294.699 178.592 294.187 179.104C293.867 179.424 293.611 179.904 293.419 180.544C293.291 181.184 293.227 181.792 293.227 182.368C293.227 183.904 293.579 184.96 294.283 185.536C294.987 186.112 296.075 186.4 297.547 186.4ZM395.679 154.912C396.703 156.448 397.215 162.4 397.215 172.768V196H380.799V174.4V169.216C380.799 166.848 380.575 165.44 380.127 164.992C379.615 164.48 378.527 164.224 376.863 164.224L375.711 164.32C373.727 164.448 371.839 164.896 370.047 165.664C370.111 167.008 370.143 169.376 370.143 172.768V196H353.727V174.4V168.64C353.727 166.656 353.503 165.44 353.055 164.992C352.543 164.48 351.455 164.224 349.791 164.224L348.639 164.32C346.847 164.384 344.991 164.8 343.071 165.568V196H326.655V151.84H339.999L341.727 159.04C343.839 156.224 346.271 154.176 349.023 152.896C351.775 151.552 354.559 150.88 357.375 150.88C359.743 150.88 361.983 151.232 364.095 151.936C366.271 152.64 367.775 153.632 368.607 154.912C368.991 155.488 369.311 156.544 369.567 158.08C371.615 155.584 373.951 153.76 376.575 152.608C379.199 151.456 381.823 150.88 384.447 150.88C386.815 150.88 389.055 151.232 391.167 151.936C393.343 152.64 394.847 153.632 395.679 154.912Z" fill="#F5F5F5"/>
</g>
<path d="M120.625 127.75C120.625 125.042 120.562 122.188 120.438 119.188C120.354 116.188 120.25 113.167 120.125 110.125C120.042 107.042 120.021 104.021 120.062 101.062C120.104 98.1042 120.292 95.3333 120.625 92.75C120.708 92.7083 120.896 92.6875 121.188 92.6875C121.521 92.6458 121.75 92.625 121.875 92.625C122.458 92.625 122.917 92.7292 123.25 92.9375C123.625 93.1042 123.812 93.5 123.812 94.125C123.812 96.5833 123.792 99.2708 123.75 102.188C123.75 105.062 123.729 108 123.688 111C123.688 113.958 123.688 116.896 123.688 119.812C123.688 122.729 123.729 125.375 123.812 127.75C123.854 128.458 123.708 128.917 123.375 129.125C123.083 129.375 122.708 129.5 122.25 129.5C121.75 129.5 121.333 129.375 121 129.125C120.667 128.917 120.542 128.458 120.625 127.75ZM119.25 83C119.25 82.5 119.417 82.1667 119.75 82C120.083 81.8333 120.458 81.75 120.875 81.75C121.708 81.75 122.229 82.0208 122.438 82.5625C122.646 83.1042 122.75 83.7292 122.75 84.4375C122.5 84.8958 122.188 85.2292 121.812 85.4375C121.438 85.6042 121.042 85.6458 120.625 85.5625C120.25 85.4375 119.917 85.1667 119.625 84.75C119.375 84.3333 119.25 83.75 119.25 83ZM129.812 102.312C129.396 102.521 129 102.75 128.625 103C128.292 103.208 127.958 103.417 127.625 103.625C127.292 103.792 126.958 103.917 126.625 104C126.292 104.083 125.938 104.083 125.562 104C125.312 104 125.104 103.854 124.938 103.562C124.771 103.229 124.646 102.875 124.562 102.5C124.438 102.083 124.354 101.688 124.312 101.312C124.271 100.896 124.271 100.583 124.312 100.375L130.312 96.9375L130.688 80.9375C130.771 80.3958 131.104 80.1875 131.688 80.3125C132.271 80.3958 132.875 80.5208 133.5 80.6875C133.583 80.6875 133.708 80.7292 133.875 80.8125C134.083 80.8542 134.229 80.8958 134.312 80.9375C134.229 82.0625 134.125 83.2917 134 84.625C133.917 85.9167 133.833 87.2292 133.75 88.5625C133.667 89.8542 133.604 91.125 133.562 92.375C133.562 93.625 133.625 94.75 133.75 95.75L143.125 93.125C143.292 93.0833 143.417 93.2083 143.5 93.5C143.625 93.75 143.729 94.0625 143.812 94.4375C143.938 94.8125 144.021 95.1875 144.062 95.5625C144.104 95.9375 144.125 96.125 144.125 96.125L133.5 100.625C133.5 101 133.521 101.896 133.562 103.312C133.646 104.729 133.729 106.417 133.812 108.375C133.896 110.292 133.979 112.375 134.062 114.625C134.146 116.833 134.229 118.896 134.312 120.812C134.396 122.729 134.458 124.417 134.5 125.875C134.542 127.292 134.562 128.188 134.562 128.562C134.479 129.812 134.104 130.438 133.438 130.438C132.812 130.438 132.125 130.125 131.375 129.5L129.812 102.312ZM150.25 128.062C150.25 128.104 150.688 127.854 151.562 127.312C152.479 126.771 153.542 126.062 154.75 125.188C156 124.271 157.271 123.292 158.562 122.25C159.854 121.167 160.917 120.146 161.75 119.188C162.583 118.229 163.021 117.417 163.062 116.75C163.146 116.042 162.583 115.583 161.375 115.375C159.875 115.167 158.604 115.188 157.562 115.438C156.562 115.688 155.646 115.979 154.812 116.312C153.979 116.646 153.188 116.958 152.438 117.25C151.729 117.542 150.938 117.646 150.062 117.562C148.229 117.562 146.958 117 146.25 115.875C145.583 114.708 145.25 113.146 145.25 111.188C145.25 109.229 145.688 107.375 146.562 105.625C147.438 103.833 148.562 102.292 149.938 101C151.312 99.7083 152.896 98.6875 154.688 97.9375C156.479 97.1458 158.312 96.75 160.188 96.75C160.938 96.75 161.583 96.8125 162.125 96.9375C162.667 97.0625 162.938 97.5417 162.938 98.375C162.938 98.9583 162.688 99.5208 162.188 100.062C161.688 100.562 161.125 100.812 160.5 100.812C160.458 100.812 160.354 100.792 160.188 100.75C160.021 100.667 159.854 100.562 159.688 100.438C159.521 100.312 159.354 100.229 159.188 100.188C159.021 100.104 158.917 100.062 158.875 100.062C157.542 99.6875 156.25 99.875 155 100.625C153.75 101.375 152.625 102.396 151.625 103.688C150.667 104.938 149.896 106.312 149.312 107.812C148.729 109.271 148.438 110.583 148.438 111.75C148.438 112.208 148.521 112.583 148.688 112.875C148.896 113.125 149.146 113.312 149.438 113.438C149.771 113.562 150.125 113.646 150.5 113.688C150.917 113.688 151.333 113.688 151.75 113.688C152.583 113.688 153.417 113.562 154.25 113.312C155.125 113.062 155.958 112.771 156.75 112.438C157.583 112.104 158.417 111.812 159.25 111.562C160.125 111.312 161.021 111.188 161.938 111.188C162.354 111.188 162.812 111.312 163.312 111.562C163.812 111.771 164.271 112.104 164.688 112.562C165.104 112.979 165.458 113.479 165.75 114.062C166.042 114.604 166.208 115.208 166.25 115.875C166.5 116.458 166.417 117.229 166 118.188C165.625 119.146 165.042 120.167 164.25 121.25C163.458 122.333 162.5 123.438 161.375 124.562C160.25 125.646 159.125 126.646 158 127.562C156.875 128.438 155.771 129.146 154.688 129.688C153.604 130.271 152.688 130.542 151.938 130.5C151.104 130.5 150.604 130.25 150.438 129.75C150.312 129.25 150.25 128.688 150.25 128.062ZM186.5 127.375C186.292 126.292 186.104 125 185.938 123.5C185.812 121.958 185.667 120.417 185.5 118.875C185.333 117.292 185.125 115.812 184.875 114.438C184.667 113.062 184.333 111.938 183.875 111.062C181.75 115.396 179.875 118.812 178.25 121.312C176.625 123.771 175.188 125.542 173.938 126.625C172.729 127.667 171.708 128.167 170.875 128.125C170.042 128.083 169.354 127.708 168.812 127C168.271 126.292 167.875 125.396 167.625 124.312C167.417 123.188 167.271 122.146 167.188 121.188C167.188 120.271 167.396 118.979 167.812 117.312C168.229 115.646 168.792 113.833 169.5 111.875C170.208 109.875 171.042 107.854 172 105.812C173 103.771 174.062 101.917 175.188 100.25C176.312 98.5833 177.479 97.2083 178.688 96.125C179.896 95.0417 181.104 94.5 182.312 94.5C184.104 94.2083 185.417 94.6042 186.25 95.6875C187.125 96.7292 187.292 98.5 186.75 101C186.75 103.75 186.854 106.104 187.062 108.062C187.312 110.021 187.562 111.896 187.812 113.688C188.104 115.479 188.354 117.354 188.562 119.312C188.812 121.271 188.938 123.625 188.938 126.375C188.938 126.875 188.875 127.312 188.75 127.688C188.667 128.021 188.167 128.188 187.25 128.188C187.125 128.188 186.958 128.083 186.75 127.875C186.583 127.667 186.5 127.5 186.5 127.375ZM183.125 99.4375C182.667 98.7708 182.042 98.7083 181.25 99.25C180.458 99.7917 179.625 100.688 178.75 101.938C177.875 103.188 176.979 104.688 176.062 106.438C175.146 108.188 174.292 109.958 173.5 111.75C172.708 113.542 172.021 115.25 171.438 116.875C170.854 118.458 170.458 119.771 170.25 120.812C170.25 122.312 170.479 123.167 170.938 123.375C171.396 123.542 171.958 123.292 172.625 122.625C173.292 121.958 174.042 121 174.875 119.75C175.75 118.5 176.583 117.167 177.375 115.75C178.208 114.333 178.979 112.958 179.688 111.625C180.438 110.292 181.021 109.208 181.438 108.375C181.812 107.5 182.104 106.688 182.312 105.938C182.521 105.188 182.688 104.479 182.812 103.812C182.979 103.104 183.062 102.396 183.062 101.688C183.104 100.979 183.125 100.229 183.125 99.4375ZM208.25 128.75L192.125 102.938C192.083 102.896 192.042 102.75 192 102.5C191.958 102.208 191.938 101.979 191.938 101.812C191.938 101.271 192.021 100.812 192.188 100.438C192.396 100.021 192.896 99.8125 193.688 99.8125C193.854 99.8125 194.146 99.9167 194.562 100.125C194.979 100.292 195.229 100.458 195.312 100.625C196.229 102.083 197.167 103.708 198.125 105.5C199.125 107.292 200.146 109.083 201.188 110.875C202.271 112.667 203.396 114.396 204.562 116.062C205.729 117.688 206.958 119.083 208.25 120.25L209.75 95.75C209.792 95.75 209.896 95.75 210.062 95.75C210.271 95.7083 210.417 95.6875 210.5 95.6875C210.875 95.6875 211.25 95.75 211.625 95.875C212 95.9583 212.271 96.2292 212.438 96.6875C212.479 98.1875 212.479 100.042 212.438 102.25C212.438 104.458 212.396 106.729 212.312 109.062C212.271 111.396 212.208 113.646 212.125 115.812C212.083 117.938 212.042 119.646 212 120.938C211.958 121.771 211.875 123.021 211.75 124.688C211.667 126.354 211.542 128.229 211.375 130.312C211.25 132.438 211.083 134.667 210.875 137C210.708 139.333 210.542 141.542 210.375 143.625C210.208 145.708 210.062 147.583 209.938 149.25C209.812 150.958 209.708 152.188 209.625 152.938H206.375L208.25 128.75ZM229.125 117.562C228.708 118.521 228.167 119.625 227.5 120.875C226.875 122.125 226.125 123.312 225.25 124.438C224.417 125.562 223.438 126.521 222.312 127.312C221.188 128.104 219.938 128.5 218.562 128.5C217.938 128.5 217.438 128.438 217.062 128.312C216.729 128.146 216.417 127.917 216.125 127.625C215.875 127.333 215.625 126.979 215.375 126.562C215.167 126.146 214.896 125.688 214.562 125.188C214.438 123.146 214.354 120.958 214.312 118.625C214.312 116.25 214.438 113.896 214.688 111.562C214.938 109.188 215.354 106.958 215.938 104.875C216.562 102.792 217.417 101.021 218.5 99.5625C219.625 98.1042 221.021 97.0625 222.688 96.4375C224.354 95.8125 226.375 95.7708 228.75 96.3125C228.875 95.1458 228.896 93.5833 228.812 91.625C228.729 89.6667 228.604 87.6042 228.438 85.4375C228.271 83.2708 228.104 81.1875 227.938 79.1875C227.771 77.1458 227.667 75.4792 227.625 74.1875C227.625 73.8125 227.792 73.5417 228.125 73.375C228.5 73.1667 228.896 73.0417 229.312 73C229.729 72.9583 230.125 72.9583 230.5 73C230.917 73.0417 231.188 73.1042 231.312 73.1875C231.229 78.3125 231.208 83.3542 231.25 88.3125C231.292 93.2292 231.333 98.1458 231.375 103.062C231.458 107.938 231.542 112.792 231.625 117.625C231.708 122.458 231.75 127.292 231.75 132.125C231.75 132.583 231.708 133.062 231.625 133.562C231.583 134.104 231.229 134.375 230.562 134.375C230.312 134.375 230.062 134.292 229.812 134.125C229.562 134 229.396 133.792 229.312 133.5L229.125 117.562ZM226.438 99.4375C225.146 99.3542 223.938 99.875 222.812 101C221.729 102.083 220.771 103.5 219.938 105.25C219.146 107 218.5 108.938 218 111.062C217.5 113.146 217.188 115.167 217.062 117.125C216.979 119.042 217.104 120.75 217.438 122.25C217.812 123.75 218.458 124.771 219.375 125.312C220.292 125.312 221.146 124.958 221.938 124.25C222.729 123.5 223.458 122.562 224.125 121.438C224.792 120.312 225.375 119.062 225.875 117.688C226.375 116.271 226.792 114.917 227.125 113.625C227.5 112.333 227.771 111.167 227.938 110.125C228.146 109.042 228.25 108.229 228.25 107.688C228.25 107.271 228.271 106.604 228.312 105.688C228.354 104.771 228.333 103.854 228.25 102.938C228.167 102.021 227.979 101.208 227.688 100.5C227.438 99.7917 227.021 99.4375 226.438 99.4375ZM235.688 98.875V98.375C235.688 97.9583 235.833 97.6667 236.125 97.5C236.458 97.3333 236.833 97.25 237.25 97.25C237.583 97.25 237.896 97.2917 238.188 97.375C238.479 97.4167 238.708 97.6458 238.875 98.0625C239 98.6875 239.125 99.5625 239.25 100.688C239.375 101.771 239.521 102.979 239.688 104.312C239.854 105.646 240.021 107.062 240.188 108.562C240.396 110.021 240.583 111.417 240.75 112.75C240.958 114.042 241.167 115.208 241.375 116.25C241.583 117.292 241.812 118.083 242.062 118.625C241.938 114.625 242.062 111.167 242.438 108.25C242.812 105.292 243.521 102.896 244.562 101.062C245.646 99.1875 247.104 97.8958 248.938 97.1875C250.812 96.4375 253.146 96.2708 255.938 96.6875C257.229 96.6875 257.875 97.375 257.875 98.75C257.875 99.2917 257.521 99.6667 256.812 99.875C256.104 100.042 255.312 100.167 254.438 100.25C253.562 100.292 252.708 100.354 251.875 100.438C251.042 100.521 250.438 100.729 250.062 101.062C248.562 101.896 247.5 103.188 246.875 104.938C246.292 106.688 245.875 108.75 245.625 111.125C245.375 113.5 245.188 116.104 245.062 118.938C244.979 121.729 244.708 124.604 244.25 127.562C244.25 127.979 244.083 128.292 243.75 128.5C243.417 128.708 243 128.812 242.5 128.812C242.042 128.812 241.583 128.708 241.125 128.5C240.708 128.292 240.375 127.979 240.125 127.562L235.688 98.875ZM262.062 127.75C262.062 125.042 262 122.188 261.875 119.188C261.792 116.188 261.688 113.167 261.562 110.125C261.479 107.042 261.458 104.021 261.5 101.062C261.542 98.1042 261.729 95.3333 262.062 92.75C262.146 92.7083 262.333 92.6875 262.625 92.6875C262.958 92.6458 263.188 92.625 263.312 92.625C263.896 92.625 264.354 92.7292 264.688 92.9375C265.062 93.1042 265.25 93.5 265.25 94.125C265.25 96.5833 265.229 99.2708 265.188 102.188C265.188 105.062 265.167 108 265.125 111C265.125 113.958 265.125 116.896 265.125 119.812C265.125 122.729 265.167 125.375 265.25 127.75C265.292 128.458 265.146 128.917 264.812 129.125C264.521 129.375 264.146 129.5 263.688 129.5C263.188 129.5 262.771 129.375 262.438 129.125C262.104 128.917 261.979 128.458 262.062 127.75ZM260.688 83C260.688 82.5 260.854 82.1667 261.188 82C261.521 81.8333 261.896 81.75 262.312 81.75C263.146 81.75 263.667 82.0208 263.875 82.5625C264.083 83.1042 264.188 83.7292 264.188 84.4375C263.938 84.8958 263.625 85.2292 263.25 85.4375C262.875 85.6042 262.479 85.6458 262.062 85.5625C261.688 85.4375 261.354 85.1667 261.062 84.75C260.812 84.3333 260.688 83.75 260.688 83ZM287.312 127.375C287.104 126.292 286.917 125 286.75 123.5C286.625 121.958 286.479 120.417 286.312 118.875C286.146 117.292 285.938 115.812 285.688 114.438C285.479 113.062 285.146 111.938 284.688 111.062C282.562 115.396 280.688 118.812 279.062 121.312C277.438 123.771 276 125.542 274.75 126.625C273.542 127.667 272.521 128.167 271.688 128.125C270.854 128.083 270.167 127.708 269.625 127C269.083 126.292 268.688 125.396 268.438 124.312C268.229 123.188 268.083 122.146 268 121.188C268 120.271 268.208 118.979 268.625 117.312C269.042 115.646 269.604 113.833 270.312 111.875C271.021 109.875 271.854 107.854 272.812 105.812C273.812 103.771 274.875 101.917 276 100.25C277.125 98.5833 278.292 97.2083 279.5 96.125C280.708 95.0417 281.917 94.5 283.125 94.5C284.917 94.2083 286.229 94.6042 287.062 95.6875C287.938 96.7292 288.104 98.5 287.562 101C287.562 103.75 287.667 106.104 287.875 108.062C288.125 110.021 288.375 111.896 288.625 113.688C288.917 115.479 289.167 117.354 289.375 119.312C289.625 121.271 289.75 123.625 289.75 126.375C289.75 126.875 289.688 127.312 289.562 127.688C289.479 128.021 288.979 128.188 288.062 128.188C287.938 128.188 287.771 128.083 287.562 127.875C287.396 127.667 287.312 127.5 287.312 127.375ZM283.938 99.4375C283.479 98.7708 282.854 98.7083 282.062 99.25C281.271 99.7917 280.438 100.688 279.562 101.938C278.688 103.188 277.792 104.688 276.875 106.438C275.958 108.188 275.104 109.958 274.312 111.75C273.521 113.542 272.833 115.25 272.25 116.875C271.667 118.458 271.271 119.771 271.062 120.812C271.062 122.312 271.292 123.167 271.75 123.375C272.208 123.542 272.771 123.292 273.438 122.625C274.104 121.958 274.854 121 275.688 119.75C276.562 118.5 277.396 117.167 278.188 115.75C279.021 114.333 279.792 112.958 280.5 111.625C281.25 110.292 281.833 109.208 282.25 108.375C282.625 107.5 282.917 106.688 283.125 105.938C283.333 105.188 283.5 104.479 283.625 103.812C283.792 103.104 283.875 102.396 283.875 101.688C283.917 100.979 283.938 100.229 283.938 99.4375ZM295.625 128.188C295.167 122.562 294.75 116.938 294.375 111.312C294.042 105.646 293.667 99.7708 293.25 93.6875C293.25 92.6875 293.792 92.1875 294.875 92.1875H295.375C295.5 92.1875 295.646 92.3542 295.812 92.6875C295.979 93.0208 296.146 93.6458 296.312 94.5625C296.521 95.4375 296.729 96.7917 296.938 98.625C297.188 100.417 297.479 102.771 297.812 105.688C298.146 108.604 298.521 112.25 298.938 116.625C299.812 113.792 300.5 111.042 301 108.375C301.5 105.708 302.146 103.292 302.938 101.125C303.729 98.9167 304.833 96.9792 306.25 95.3125C307.708 93.6458 309.792 92.4167 312.5 91.625C314 91.875 315.208 92.7917 316.125 94.375C317.042 95.9167 317.771 97.8333 318.312 100.125C318.854 102.417 319.229 104.917 319.438 107.625C319.646 110.292 319.771 112.854 319.812 115.312C319.854 117.771 319.875 119.979 319.875 121.938C319.875 123.854 319.917 125.229 320 126.062C319.875 126.396 319.688 126.688 319.438 126.938C319.188 127.188 318.896 127.375 318.562 127.5C318.271 127.583 317.979 127.604 317.688 127.562C317.396 127.479 317.125 127.25 316.875 126.875C316.875 126.417 316.833 125.479 316.75 124.062C316.667 122.646 316.562 121 316.438 119.125C316.312 117.208 316.167 115.188 316 113.062C315.875 110.896 315.75 108.875 315.625 107C315.542 105.083 315.458 103.417 315.375 102C315.292 100.583 315.229 99.6458 315.188 99.1875C314.312 97.6458 313.438 96.7708 312.562 96.5625C311.729 96.3542 310.875 96.625 310 97.375C309.167 98.125 308.354 99.2708 307.562 100.812C306.771 102.354 306.021 104.104 305.312 106.062C304.604 107.979 303.938 110 303.312 112.125C302.688 114.25 302.146 116.312 301.688 118.312C301.229 120.271 300.833 122.062 300.5 123.688C300.208 125.271 300.021 126.5 299.938 127.375C299.812 127.667 299.542 127.958 299.125 128.25C298.75 128.5 298.333 128.688 297.875 128.812C297.458 128.938 297.021 128.979 296.562 128.938C296.146 128.854 295.833 128.604 295.625 128.188Z" fill="black"/>
</g>
<defs>
<filter id="filter0_d_201_120" x="303" y="411" width="28" height="28" filterUnits="userSpaceOnUse" color-interpolation-filters="sRGB">
<feFlood flood-opacity="0" result="BackgroundImageFix"/>
<feColorMatrix in="SourceAlpha" type="matrix" values="0 0 0 0 0 0 0 0 0 0 0 0 0 0 0 0 0 0 127 0" result="hardAlpha"/>
<feOffset dy="4"/>
<feGaussianBlur stdDeviation="2"/>
<feComposite in2="hardAlpha" operator="out"/>
<feColorMatrix type="matrix" values="0 0 0 0 0 0 0 0 0 0 0 0 0 0 0 0 0 0 0.25 0"/>
<feBlend mode="normal" in2="BackgroundImageFix" result="effect1_dropShadow_201_120"/>
<feBlend mode="normal" in="SourceGraphic" in2="effect1_dropShadow_201_120" result="shape"/>
</filter>
<filter id="filter1_d_201_120" x="329" y="411" width="28" height="28" filterUnits="userSpaceOnUse" color-interpolation-filters="sRGB">
<feFlood flood-opacity="0" result="BackgroundImageFix"/>
<feColorMatrix in="SourceAlpha" type="matrix" values="0 0 0 0 0 0 0 0 0 0 0 0 0 0 0 0 0 0 127 0" result="hardAlpha"/>
<feOffset dy="4"/>
<feGaussianBlur stdDeviation="2"/>
<feComposite in2="hardAlpha" operator="out"/>
<feColorMatrix type="matrix" values="0 0 0 0 0 0 0 0 0 0 0 0 0 0 0 0 0 0 0.25 0"/>
<feBlend mode="normal" in2="BackgroundImageFix" result="effect1_dropShadow_201_120"/>
<feBlend mode="normal" in="SourceGraphic" in2="effect1_dropShadow_201_120" result="shape"/>
</filter>
<filter id="filter2_d_201_120" x="355" y="411" width="28" height="28" filterUnits="userSpaceOnUse" color-interpolation-filters="sRGB">
<feFlood flood-opacity="0" result="BackgroundImageFix"/>
<feColorMatrix in="SourceAlpha" type="matrix" values="0 0 0 0 0 0 0 0 0 0 0 0 0 0 0 0 0 0 127 0" result="hardAlpha"/>
<feOffset dy="4"/>
<feGaussianBlur stdDeviation="2"/>
<feComposite in2="hardAlpha" operator="out"/>
<feColorMatrix type="matrix" values="0 0 0 0 0 0 0 0 0 0 0 0 0 0 0 0 0 0 0.25 0"/>
<feBlend mode="normal" in2="BackgroundImageFix" result="effect1_dropShadow_201_120"/>
<feBlend mode="normal" in="SourceGraphic" in2="effect1_dropShadow_201_120" result="shape"/>
</filter>
<filter id="filter3_d_201_120" x="381" y="411" width="28" height="28" filterUnits="userSpaceOnUse" color-interpolation-filters="sRGB">
<feFlood flood-opacity="0" result="BackgroundImageFix"/>
<feColorMatrix in="SourceAlpha" type="matrix" values="0 0 0 0 0 0 0 0 0 0 0 0 0 0 0 0 0 0 127 0" result="hardAlpha"/>
<feOffset dy="4"/>
<feGaussianBlur stdDeviation="2"/>
<feComposite in2="hardAlpha" operator="out"/>
<feColorMatrix type="matrix" values="0 0 0 0 0 0 0 0 0 0 0 0 0 0 0 0 0 0 0.25 0"/>
<feBlend mode="normal" in2="BackgroundImageFix" result="effect1_dropShadow_201_120"/>
<feBlend mode="normal" in="SourceGraphic" in2="effect1_dropShadow_201_120" result="shape"/>
</filter>
<filter id="filter4_d_201_120" x="407" y="411" width="28" height="28" filterUnits="userSpaceOnUse" color-interpolation-filters="sRGB">
<feFlood flood-opacity="0" result="BackgroundImageFix"/>
<feColorMatrix in="SourceAlpha" type="matrix" values="0 0 0 0 0 0 0 0 0 0 0 0 0 0 0 0 0 0 127 0" result="hardAlpha"/>
<feOffset dy="4"/>
<feGaussianBlur stdDeviation="2"/>
<feComposite in2="hardAlpha" operator="out"/>
<feColorMatrix type="matrix" values="0 0 0 0 0 0 0 0 0 0 0 0 0 0 0 0 0 0 0.25 0"/>
<feBlend mode="normal" in2="BackgroundImageFix" result="effect1_dropShadow_201_120"/>
<feBlend mode="normal" in="SourceGraphic" in2="effect1_dropShadow_201_120" result="shape"/>
</filter>
<filter id="filter5_d_201_120" x="433" y="411" width="28" height="28" filterUnits="userSpaceOnUse" color-interpolation-filters="sRGB">
<feFlood flood-opacity="0" result="BackgroundImageFix"/>
<feColorMatrix in="SourceAlpha" type="matrix" values="0 0 0 0 0 0 0 0 0 0 0 0 0 0 0 0 0 0 127 0" result="hardAlpha"/>
<feOffset dy="4"/>
<feGaussianBlur stdDeviation="2"/>
<feComposite in2="hardAlpha" operator="out"/>
<feColorMatrix type="matrix" values="0 0 0 0 0 0 0 0 0 0 0 0 0 0 0 0 0 0 0.25 0"/>
<feBlend mode="normal" in2="BackgroundImageFix" result="effect1_dropShadow_201_120"/>
<feBlend mode="normal" in="SourceGraphic" in2="effect1_dropShadow_201_120" result="shape"/>
</filter>
<filter id="filter6_d_201_120" x="459" y="411" width="28" height="28" filterUnits="userSpaceOnUse" color-interpolation-filters="sRGB">
<feFlood flood-opacity="0" result="BackgroundImageFix"/>
<feColorMatrix in="SourceAlpha" type="matrix" values="0 0 0 0 0 0 0 0 0 0 0 0 0 0 0 0 0 0 127 0" result="hardAlpha"/>
<feOffset dy="4"/>
<feGaussianBlur stdDeviation="2"/>
<feComposite in2="hardAlpha" operator="out"/>
<feColorMatrix type="matrix" values="0 0 0 0 0 0 0 0 0 0 0 0 0 0 0 0 0 0 0.25 0"/>
<feBlend mode="normal" in2="BackgroundImageFix" result="effect1_dropShadow_201_120"/>
<feBlend mode="normal" in="SourceGraphic" in2="effect1_dropShadow_201_120" result="shape"/>
</filter>
<filter id="filter7_d_201_120" x="303" y="437" width="28" height="28" filterUnits="userSpaceOnUse" color-interpolation-filters="sRGB">
<feFlood flood-opacity="0" result="BackgroundImageFix"/>
<feColorMatrix in="SourceAlpha" type="matrix" values="0 0 0 0 0 0 0 0 0 0 0 0 0 0 0 0 0 0 127 0" result="hardAlpha"/>
<feOffset dy="4"/>
<feGaussianBlur stdDeviation="2"/>
<feComposite in2="hardAlpha" operator="out"/>
<feColorMatrix type="matrix" values="0 0 0 0 0 0 0 0 0 0 0 0 0 0 0 0 0 0 0.25 0"/>
<feBlend mode="normal" in2="BackgroundImageFix" result="effect1_dropShadow_201_120"/>
<feBlend mode="normal" in="SourceGraphic" in2="effect1_dropShadow_201_120" result="shape"/>
</filter>
<filter id="filter8_d_201_120" x="329" y="437" width="28" height="28" filterUnits="userSpaceOnUse" color-interpolation-filters="sRGB">
<feFlood flood-opacity="0" result="BackgroundImageFix"/>
<feColorMatrix in="SourceAlpha" type="matrix" values="0 0 0 0 0 0 0 0 0 0 0 0 0 0 0 0 0 0 127 0" result="hardAlpha"/>
<feOffset dy="4"/>
<feGaussianBlur stdDeviation="2"/>
<feComposite in2="hardAlpha" operator="out"/>
<feColorMatrix type="matrix" values="0 0 0 0 0 0 0 0 0 0 0 0 0 0 0 0 0 0 0.25 0"/>
<feBlend mode="normal" in2="BackgroundImageFix" result="effect1_dropShadow_201_120"/>
<feBlend mode="normal" in="SourceGraphic" in2="effect1_dropShadow_201_120" result="shape"/>
</filter>
<filter id="filter9_d_201_120" x="355" y="437" width="28" height="28" filterUnits="userSpaceOnUse" color-interpolation-filters="sRGB">
<feFlood flood-opacity="0" result="BackgroundImageFix"/>
<feColorMatrix in="SourceAlpha" type="matrix" values="0 0 0 0 0 0 0 0 0 0 0 0 0 0 0 0 0 0 127 0" result="hardAlpha"/>
<feOffset dy="4"/>
<feGaussianBlur stdDeviation="2"/>
<feComposite in2="hardAlpha" operator="out"/>
<feColorMatrix type="matrix" values="0 0 0 0 0 0 0 0 0 0 0 0 0 0 0 0 0 0 0.25 0"/>
<feBlend mode="normal" in2="BackgroundImageFix" result="effect1_dropShadow_201_120"/>
<feBlend mode="normal" in="SourceGraphic" in2="effect1_dropShadow_201_120" result="shape"/>
</filter>
<filter id="filter10_d_201_120" x="381" y="437" width="28" height="28" filterUnits="userSpaceOnUse" color-interpolation-filters="sRGB">
<feFlood flood-opacity="0" result="BackgroundImageFix"/>
<feColorMatrix in="SourceAlpha" type="matrix" values="0 0 0 0 0 0 0 0 0 0 0 0 0 0 0 0 0 0 127 0" result="hardAlpha"/>
<feOffset dy="4"/>
<feGaussianBlur stdDeviation="2"/>
<feComposite in2="hardAlpha" operator="out"/>
<feColorMatrix type="matrix" values="0 0 0 0 0 0 0 0 0 0 0 0 0 0 0 0 0 0 0.25 0"/>
<feBlend mode="normal" in2="BackgroundImageFix" result="effect1_dropShadow_201_120"/>
<feBlend mode="normal" in="SourceGraphic" in2="effect1_dropShadow_201_120" result="shape"/>
</filter>
<filter id="filter11_d_201_120" x="407" y="437" width="28" height="28" filterUnits="userSpaceOnUse" color-interpolation-filters="sRGB">
<feFlood flood-opacity="0" result="BackgroundImageFix"/>
<feColorMatrix in="SourceAlpha" type="matrix" values="0 0 0 0 0 0 0 0 0 0 0 0 0 0 0 0 0 0 127 0" result="hardAlpha"/>
<feOffset dy="4"/>
<feGaussianBlur stdDeviation="2"/>
<feComposite in2="hardAlpha" operator="out"/>
<feColorMatrix type="matrix" values="0 0 0 0 0 0 0 0 0 0 0 0 0 0 0 0 0 0 0.25 0"/>
<feBlend mode="normal" in2="BackgroundImageFix" result="effect1_dropShadow_201_120"/>
<feBlend mode="normal" in="SourceGraphic" in2="effect1_dropShadow_201_120" result="shape"/>
</filter>
<filter id="filter12_d_201_120" x="433" y="437" width="28" height="28" filterUnits="userSpaceOnUse" color-interpolation-filters="sRGB">
<feFlood flood-opacity="0" result="BackgroundImageFix"/>
<feColorMatrix in="SourceAlpha" type="matrix" values="0 0 0 0 0 0 0 0 0 0 0 0 0 0 0 0 0 0 127 0" result="hardAlpha"/>
<feOffset dy="4"/>
<feGaussianBlur stdDeviation="2"/>
<feComposite in2="hardAlpha" operator="out"/>
<feColorMatrix type="matrix" values="0 0 0 0 0 0 0 0 0 0 0 0 0 0 0 0 0 0 0.25 0"/>
<feBlend mode="normal" in2="BackgroundImageFix" result="effect1_dropShadow_201_120"/>
<feBlend mode="normal" in="SourceGraphic" in2="effect1_dropShadow_201_120" result="shape"/>
</filter>
<filter id="filter13_d_201_120" x="459" y="437" width="28" height="28" filterUnits="userSpaceOnUse" color-interpolation-filters="sRGB">
<feFlood flood-opacity="0" result="BackgroundImageFix"/>
<feColorMatrix in="SourceAlpha" type="matrix" values="0 0 0 0 0 0 0 0 0 0 0 0 0 0 0 0 0 0 127 0" result="hardAlpha"/>
<feOffset dy="4"/>
<feGaussianBlur stdDeviation="2"/>
<feComposite in2="hardAlpha" operator="out"/>
<feColorMatrix type="matrix" values="0 0 0 0 0 0 0 0 0 0 0 0 0 0 0 0 0 0 0.25 0"/>
<feBlend mode="normal" in2="BackgroundImageFix" result="effect1_dropShadow_201_120"/>
<feBlend mode="normal" in="SourceGraphic" in2="effect1_dropShadow_201_120" result="shape"/>
</filter>
<filter id="filter14_d_201_120" x="303" y="463" width="28" height="28" filterUnits="userSpaceOnUse" color-interpolation-filters="sRGB">
<feFlood flood-opacity="0" result="BackgroundImageFix"/>
<feColorMatrix in="SourceAlpha" type="matrix" values="0 0 0 0 0 0 0 0 0 0 0 0 0 0 0 0 0 0 127 0" result="hardAlpha"/>
<feOffset dy="4"/>
<feGaussianBlur stdDeviation="2"/>
<feComposite in2="hardAlpha" operator="out"/>
<feColorMatrix type="matrix" values="0 0 0 0 0 0 0 0 0 0 0 0 0 0 0 0 0 0 0.25 0"/>
<feBlend mode="normal" in2="BackgroundImageFix" result="effect1_dropShadow_201_120"/>
<feBlend mode="normal" in="SourceGraphic" in2="effect1_dropShadow_201_120" result="shape"/>
</filter>
<filter id="filter15_d_201_120" x="329" y="463" width="28" height="28" filterUnits="userSpaceOnUse" color-interpolation-filters="sRGB">
<feFlood flood-opacity="0" result="BackgroundImageFix"/>
<feColorMatrix in="SourceAlpha" type="matrix" values="0 0 0 0 0 0 0 0 0 0 0 0 0 0 0 0 0 0 127 0" result="hardAlpha"/>
<feOffset dy="4"/>
<feGaussianBlur stdDeviation="2"/>
<feComposite in2="hardAlpha" operator="out"/>
<feColorMatrix type="matrix" values="0 0 0 0 0 0 0 0 0 0 0 0 0 0 0 0 0 0 0.25 0"/>
<feBlend mode="normal" in2="BackgroundImageFix" result="effect1_dropShadow_201_120"/>
<feBlend mode="normal" in="SourceGraphic" in2="effect1_dropShadow_201_120" result="shape"/>
</filter>
<filter id="filter16_d_201_120" x="355" y="463" width="28" height="28" filterUnits="userSpaceOnUse" color-interpolation-filters="sRGB">
<feFlood flood-opacity="0" result="BackgroundImageFix"/>
<feColorMatrix in="SourceAlpha" type="matrix" values="0 0 0 0 0 0 0 0 0 0 0 0 0 0 0 0 0 0 127 0" result="hardAlpha"/>
<feOffset dy="4"/>
<feGaussianBlur stdDeviation="2"/>
<feComposite in2="hardAlpha" operator="out"/>
<feColorMatrix type="matrix" values="0 0 0 0 0 0 0 0 0 0 0 0 0 0 0 0 0 0 0.25 0"/>
<feBlend mode="normal" in2="BackgroundImageFix" result="effect1_dropShadow_201_120"/>
<feBlend mode="normal" in="SourceGraphic" in2="effect1_dropShadow_201_120" result="shape"/>
</filter>
<filter id="filter17_d_201_120" x="381" y="463" width="28" height="28" filterUnits="userSpaceOnUse" color-interpolation-filters="sRGB">
<feFlood flood-opacity="0" result="BackgroundImageFix"/>
<feColorMatrix in="SourceAlpha" type="matrix" values="0 0 0 0 0 0 0 0 0 0 0 0 0 0 0 0 0 0 127 0" result="hardAlpha"/>
<feOffset dy="4"/>
<feGaussianBlur stdDeviation="2"/>
<feComposite in2="hardAlpha" operator="out"/>
<feColorMatrix type="matrix" values="0 0 0 0 0 0 0 0 0 0 0 0 0 0 0 0 0 0 0.25 0"/>
<feBlend mode="normal" in2="BackgroundImageFix" result="effect1_dropShadow_201_120"/>
<feBlend mode="normal" in="SourceGraphic" in2="effect1_dropShadow_201_120" result="shape"/>
</filter>
<filter id="filter18_d_201_120" x="407" y="463" width="28" height="28" filterUnits="userSpaceOnUse" color-interpolation-filters="sRGB">
<feFlood flood-opacity="0" result="BackgroundImageFix"/>
<feColorMatrix in="SourceAlpha" type="matrix" values="0 0 0 0 0 0 0 0 0 0 0 0 0 0 0 0 0 0 127 0" result="hardAlpha"/>
<feOffset dy="4"/>
<feGaussianBlur stdDeviation="2"/>
<feComposite in2="hardAlpha" operator="out"/>
<feColorMatrix type="matrix" values="0 0 0 0 0 0 0 0 0 0 0 0 0 0 0 0 0 0 0.25 0"/>
<feBlend mode="normal" in2="BackgroundImageFix" result="effect1_dropShadow_201_120"/>
<feBlend mode="normal" in="SourceGraphic" in2="effect1_dropShadow_201_120" result="shape"/>
</filter>
<filter id="filter19_d_201_120" x="433" y="463" width="28" height="28" filterUnits="userSpaceOnUse" color-interpolation-filters="sRGB">
<feFlood flood-opacity="0" result="BackgroundImageFix"/>
<feColorMatrix in="SourceAlpha" type="matrix" values="0 0 0 0 0 0 0 0 0 0 0 0 0 0 0 0 0 0 127 0" result="hardAlpha"/>
<feOffset dy="4"/>
<feGaussianBlur stdDeviation="2"/>
<feComposite in2="hardAlpha" operator="out"/>
<feColorMatrix type="matrix" values="0 0 0 0 0 0 0 0 0 0 0 0 0 0 0 0 0 0 0.25 0"/>
<feBlend mode="normal" in2="BackgroundImageFix" result="effect1_dropShadow_201_120"/>
<feBlend mode="normal" in="SourceGraphic" in2="effect1_dropShadow_201_120" result="shape"/>
</filter>
<filter id="filter20_d_201_120" x="459" y="463" width="28" height="28" filterUnits="userSpaceOnUse" color-interpolation-filters="sRGB">
<feFlood flood-opacity="0" result="BackgroundImageFix"/>
<feColorMatrix in="SourceAlpha" type="matrix" values="0 0 0 0 0 0 0 0 0 0 0 0 0 0 0 0 0 0 127 0" result="hardAlpha"/>
<feOffset dy="4"/>
<feGaussianBlur stdDeviation="2"/>
<feComposite in2="hardAlpha" operator="out"/>
<feColorMatrix type="matrix" values="0 0 0 0 0 0 0 0 0 0 0 0 0 0 0 0 0 0 0.25 0"/>
<feBlend mode="normal" in2="BackgroundImageFix" result="effect1_dropShadow_201_120"/>
<feBlend mode="normal" in="SourceGraphic" in2="effect1_dropShadow_201_120" result="shape"/>
</filter>
<filter id="filter21_d_201_120" x="208" y="451" width="36" height="36" filterUnits="userSpaceOnUse" color-interpolation-filters="sRGB">
<feFlood flood-opacity="0" result="BackgroundImageFix"/>
<feColorMatrix in="SourceAlpha" type="matrix" values="0 0 0 0 0 0 0 0 0 0 0 0 0 0 0 0 0 0 127 0" result="hardAlpha"/>
<feOffset dy="4"/>
<feGaussianBlur stdDeviation="2"/>
<feComposite in2="hardAlpha" operator="out"/>
<feColorMatrix type="matrix" values="0 0 0 0 0 0 0 0 0 0 0 0 0 0 0 0 0 0 0.25 0"/>
<feBlend mode="normal" in2="BackgroundImageFix" result="effect1_dropShadow_201_120"/>
<feBlend mode="normal" in="SourceGraphic" in2="effect1_dropShadow_201_120" result="shape"/>
</filter>
<filter id="filter22_d_201_120" x="208" y="415" width="36" height="36" filterUnits="userSpaceOnUse" color-interpolation-filters="sRGB">
<feFlood flood-opacity="0" result="BackgroundImageFix"/>
<feColorMatrix in="SourceAlpha" type="matrix" values="0 0 0 0 0 0 0 0 0 0 0 0 0 0 0 0 0 0 127 0" result="hardAlpha"/>
<feOffset dy="4"/>
<feGaussianBlur stdDeviation="2"/>
<feComposite in2="hardAlpha" operator="out"/>
<feColorMatrix type="matrix" values="0 0 0 0 0 0 0 0 0 0 0 0 0 0 0 0 0 0 0.25 0"/>
<feBlend mode="normal" in2="BackgroundImageFix" result="effect1_dropShadow_201_120"/>
<feBlend mode="normal" in="SourceGraphic" in2="effect1_dropShadow_201_120" result="shape"/>
</filter>
<filter id="filter23_d_201_120" x="25" y="411" width="28" height="28" filterUnits="userSpaceOnUse" color-interpolation-filters="sRGB">
<feFlood flood-opacity="0" result="BackgroundImageFix"/>
<feColorMatrix in="SourceAlpha" type="matrix" values="0 0 0 0 0 0 0 0 0 0 0 0 0 0 0 0 0 0 127 0" result="hardAlpha"/>
<feOffset dy="4"/>
<feGaussianBlur stdDeviation="2"/>
<feComposite in2="hardAlpha" operator="out"/>
<feColorMatrix type="matrix" values="0 0 0 0 0 0 0 0 0 0 0 0 0 0 0 0 0 0 0.25 0"/>
<feBlend mode="normal" in2="BackgroundImageFix" result="effect1_dropShadow_201_120"/>
<feBlend mode="normal" in="SourceGraphic" in2="effect1_dropShadow_201_120" result="shape"/>
</filter>
<filter id="filter24_d_201_120" x="51" y="411" width="28" height="28" filterUnits="userSpaceOnUse" color-interpolation-filters="sRGB">
<feFlood flood-opacity="0" result="BackgroundImageFix"/>
<feColorMatrix in="SourceAlpha" type="matrix" values="0 0 0 0 0 0 0 0 0 0 0 0 0 0 0 0 0 0 127 0" result="hardAlpha"/>
<feOffset dy="4"/>
<feGaussianBlur stdDeviation="2"/>
<feComposite in2="hardAlpha" operator="out"/>
<feColorMatrix type="matrix" values="0 0 0 0 0 0 0 0 0 0 0 0 0 0 0 0 0 0 0.25 0"/>
<feBlend mode="normal" in2="BackgroundImageFix" result="effect1_dropShadow_201_120"/>
<feBlend mode="normal" in="SourceGraphic" in2="effect1_dropShadow_201_120" result="shape"/>
</filter>
<filter id="filter25_d_201_120" x="77" y="411" width="28" height="28" filterUnits="userSpaceOnUse" color-interpolation-filters="sRGB">
<feFlood flood-opacity="0" result="BackgroundImageFix"/>
<feColorMatrix in="SourceAlpha" type="matrix" values="0 0 0 0 0 0 0 0 0 0 0 0 0 0 0 0 0 0 127 0" result="hardAlpha"/>
<feOffset dy="4"/>
<feGaussianBlur stdDeviation="2"/>
<feComposite in2="hardAlpha" operator="out"/>
<feColorMatrix type="matrix" values="0 0 0 0 0 0 0 0 0 0 0 0 0 0 0 0 0 0 0.25 0"/>
<feBlend mode="normal" in2="BackgroundImageFix" result="effect1_dropShadow_201_120"/>
<feBlend mode="normal" in="SourceGraphic" in2="effect1_dropShadow_201_120" result="shape"/>
</filter>
<filter id="filter26_d_201_120" x="103" y="411" width="28" height="28" filterUnits="userSpaceOnUse" color-interpolation-filters="sRGB">
<feFlood flood-opacity="0" result="BackgroundImageFix"/>
<feColorMatrix in="SourceAlpha" type="matrix" values="0 0 0 0 0 0 0 0 0 0 0 0 0 0 0 0 0 0 127 0" result="hardAlpha"/>
<feOffset dy="4"/>
<feGaussianBlur stdDeviation="2"/>
<feComposite in2="hardAlpha" operator="out"/>
<feColorMatrix type="matrix" values="0 0 0 0 0 0 0 0 0 0 0 0 0 0 0 0 0 0 0.25 0"/>
<feBlend mode="normal" in2="BackgroundImageFix" result="effect1_dropShadow_201_120"/>
<feBlend mode="normal" in="SourceGraphic" in2="effect1_dropShadow_201_120" result="shape"/>
</filter>
<filter id="filter27_d_201_120" x="129" y="411" width="28" height="28" filterUnits="userSpaceOnUse" color-interpolation-filters="sRGB">
<feFlood flood-opacity="0" result="BackgroundImageFix"/>
<feColorMatrix in="SourceAlpha" type="matrix" values="0 0 0 0 0 0 0 0 0 0 0 0 0 0 0 0 0 0 127 0" result="hardAlpha"/>
<feOffset dy="4"/>
<feGaussianBlur stdDeviation="2"/>
<feComposite in2="hardAlpha" operator="out"/>
<feColorMatrix type="matrix" values="0 0 0 0 0 0 0 0 0 0 0 0 0 0 0 0 0 0 0.25 0"/>
<feBlend mode="normal" in2="BackgroundImageFix" result="effect1_dropShadow_201_120"/>
<feBlend mode="normal" in="SourceGraphic" in2="effect1_dropShadow_201_120" result="shape"/>
</filter>
<filter id="filter28_d_201_120" x="155" y="411" width="28" height="28" filterUnits="userSpaceOnUse" color-interpolation-filters="sRGB">
<feFlood flood-opacity="0" result="BackgroundImageFix"/>
<feColorMatrix in="SourceAlpha" type="matrix" values="0 0 0 0 0 0 0 0 0 0 0 0 0 0 0 0 0 0 127 0" result="hardAlpha"/>
<feOffset dy="4"/>
<feGaussianBlur stdDeviation="2"/>
<feComposite in2="hardAlpha" operator="out"/>
<feColorMatrix type="matrix" values="0 0 0 0 0 0 0 0 0 0 0 0 0 0 0 0 0 0 0.25 0"/>
<feBlend mode="normal" in2="BackgroundImageFix" result="effect1_dropShadow_201_120"/>
<feBlend mode="normal" in="SourceGraphic" in2="effect1_dropShadow_201_120" result="shape"/>
</filter>
<filter id="filter29_d_201_120" x="181" y="411" width="28" height="28" filterUnits="userSpaceOnUse" color-interpolation-filters="sRGB">
<feFlood flood-opacity="0" result="BackgroundImageFix"/>
<feColorMatrix in="SourceAlpha" type="matrix" values="0 0 0 0 0 0 0 0 0 0 0 0 0 0 0 0 0 0 127 0" result="hardAlpha"/>
<feOffset dy="4"/>
<feGaussianBlur stdDeviation="2"/>
<feComposite in2="hardAlpha" operator="out"/>
<feColorMatrix type="matrix" values="0 0 0 0 0 0 0 0 0 0 0 0 0 0 0 0 0 0 0.25 0"/>
<feBlend mode="normal" in2="BackgroundImageFix" result="effect1_dropShadow_201_120"/>
<feBlend mode="normal" in="SourceGraphic" in2="effect1_dropShadow_201_120" result="shape"/>
</filter>
<filter id="filter30_d_201_120" x="25" y="437" width="28" height="28" filterUnits="userSpaceOnUse" color-interpolation-filters="sRGB">
<feFlood flood-opacity="0" result="BackgroundImageFix"/>
<feColorMatrix in="SourceAlpha" type="matrix" values="0 0 0 0 0 0 0 0 0 0 0 0 0 0 0 0 0 0 127 0" result="hardAlpha"/>
<feOffset dy="4"/>
<feGaussianBlur stdDeviation="2"/>
<feComposite in2="hardAlpha" operator="out"/>
<feColorMatrix type="matrix" values="0 0 0 0 0 0 0 0 0 0 0 0 0 0 0 0 0 0 0.25 0"/>
<feBlend mode="normal" in2="BackgroundImageFix" result="effect1_dropShadow_201_120"/>
<feBlend mode="normal" in="SourceGraphic" in2="effect1_dropShadow_201_120" result="shape"/>
</filter>
<filter id="filter31_d_201_120" x="51" y="437" width="28" height="28" filterUnits="userSpaceOnUse" color-interpolation-filters="sRGB">
<feFlood flood-opacity="0" result="BackgroundImageFix"/>
<feColorMatrix in="SourceAlpha" type="matrix" values="0 0 0 0 0 0 0 0 0 0 0 0 0 0 0 0 0 0 127 0" result="hardAlpha"/>
<feOffset dy="4"/>
<feGaussianBlur stdDeviation="2"/>
<feComposite in2="hardAlpha" operator="out"/>
<feColorMatrix type="matrix" values="0 0 0 0 0 0 0 0 0 0 0 0 0 0 0 0 0 0 0.25 0"/>
<feBlend mode="normal" in2="BackgroundImageFix" result="effect1_dropShadow_201_120"/>
<feBlend mode="normal" in="SourceGraphic" in2="effect1_dropShadow_201_120" result="shape"/>
</filter>
<filter id="filter32_d_201_120" x="77" y="437" width="28" height="28" filterUnits="userSpaceOnUse" color-interpolation-filters="sRGB">
<feFlood flood-opacity="0" result="BackgroundImageFix"/>
<feColorMatrix in="SourceAlpha" type="matrix" values="0 0 0 0 0 0 0 0 0 0 0 0 0 0 0 0 0 0 127 0" result="hardAlpha"/>
<feOffset dy="4"/>
<feGaussianBlur stdDeviation="2"/>
<feComposite in2="hardAlpha" operator="out"/>
<feColorMatrix type="matrix" values="0 0 0 0 0 0 0 0 0 0 0 0 0 0 0 0 0 0 0.25 0"/>
<feBlend mode="normal" in2="BackgroundImageFix" result="effect1_dropShadow_201_120"/>
<feBlend mode="normal" in="SourceGraphic" in2="effect1_dropShadow_201_120" result="shape"/>
</filter>
<filter id="filter33_d_201_120" x="103" y="437" width="28" height="28" filterUnits="userSpaceOnUse" color-interpolation-filters="sRGB">
<feFlood flood-opacity="0" result="BackgroundImageFix"/>
<feColorMatrix in="SourceAlpha" type="matrix" values="0 0 0 0 0 0 0 0 0 0 0 0 0 0 0 0 0 0 127 0" result="hardAlpha"/>
<feOffset dy="4"/>
<feGaussianBlur stdDeviation="2"/>
<feComposite in2="hardAlpha" operator="out"/>
<feColorMatrix type="matrix" values="0 0 0 0 0 0 0 0 0 0 0 0 0 0 0 0 0 0 0.25 0"/>
<feBlend mode="normal" in2="BackgroundImageFix" result="effect1_dropShadow_201_120"/>
<feBlend mode="normal" in="SourceGraphic" in2="effect1_dropShadow_201_120" result="shape"/>
</filter>
<filter id="filter34_d_201_120" x="129" y="437" width="28" height="28" filterUnits="userSpaceOnUse" color-interpolation-filters="sRGB">
<feFlood flood-opacity="0" result="BackgroundImageFix"/>
<feColorMatrix in="SourceAlpha" type="matrix" values="0 0 0 0 0 0 0 0 0 0 0 0 0 0 0 0 0 0 127 0" result="hardAlpha"/>
<feOffset dy="4"/>
<feGaussianBlur stdDeviation="2"/>
<feComposite in2="hardAlpha" operator="out"/>
<feColorMatrix type="matrix" values="0 0 0 0 0 0 0 0 0 0 0 0 0 0 0 0 0 0 0.25 0"/>
<feBlend mode="normal" in2="BackgroundImageFix" result="effect1_dropShadow_201_120"/>
<feBlend mode="normal" in="SourceGraphic" in2="effect1_dropShadow_201_120" result="shape"/>
</filter>
<filter id="filter35_d_201_120" x="155" y="437" width="28" height="28" filterUnits="userSpaceOnUse" color-interpolation-filters="sRGB">
<feFlood flood-opacity="0" result="BackgroundImageFix"/>
<feColorMatrix in="SourceAlpha" type="matrix" values="0 0 0 0 0 0 0 0 0 0 0 0 0 0 0 0 0 0 127 0" result="hardAlpha"/>
<feOffset dy="4"/>
<feGaussianBlur stdDeviation="2"/>
<feComposite in2="hardAlpha" operator="out"/>
<feColorMatrix type="matrix" values="0 0 0 0 0 0 0 0 0 0 0 0 0 0 0 0 0 0 0.25 0"/>
<feBlend mode="normal" in2="BackgroundImageFix" result="effect1_dropShadow_201_120"/>
<feBlend mode="normal" in="SourceGraphic" in2="effect1_dropShadow_201_120" result="shape"/>
</filter>
<filter id="filter36_d_201_120" x="181" y="437" width="28" height="28" filterUnits="userSpaceOnUse" color-interpolation-filters="sRGB">
<feFlood flood-opacity="0" result="BackgroundImageFix"/>
<feColorMatrix in="SourceAlpha" type="matrix" values="0 0 0 0 0 0 0 0 0 0 0 0 0 0 0 0 0 0 127 0" result="hardAlpha"/>
<feOffset dy="4"/>
<feGaussianBlur stdDeviation="2"/>
<feComposite in2="hardAlpha" operator="out"/>
<feColorMatrix type="matrix" values="0 0 0 0 0 0 0 0 0 0 0 0 0 0 0 0 0 0 0.25 0"/>
<feBlend mode="normal" in2="BackgroundImageFix" result="effect1_dropShadow_201_120"/>
<feBlend mode="normal" in="SourceGraphic" in2="effect1_dropShadow_201_120" result="shape"/>
</filter>
<filter id="filter37_d_201_120" x="25" y="463" width="28" height="28" filterUnits="userSpaceOnUse" color-interpolation-filters="sRGB">
<feFlood flood-opacity="0" result="BackgroundImageFix"/>
<feColorMatrix in="SourceAlpha" type="matrix" values="0 0 0 0 0 0 0 0 0 0 0 0 0 0 0 0 0 0 127 0" result="hardAlpha"/>
<feOffset dy="4"/>
<feGaussianBlur stdDeviation="2"/>
<feComposite in2="hardAlpha" operator="out"/>
<feColorMatrix type="matrix" values="0 0 0 0 0 0 0 0 0 0 0 0 0 0 0 0 0 0 0.25 0"/>
<feBlend mode="normal" in2="BackgroundImageFix" result="effect1_dropShadow_201_120"/>
<feBlend mode="normal" in="SourceGraphic" in2="effect1_dropShadow_201_120" result="shape"/>
</filter>
<filter id="filter38_d_201_120" x="51" y="463" width="28" height="28" filterUnits="userSpaceOnUse" color-interpolation-filters="sRGB">
<feFlood flood-opacity="0" result="BackgroundImageFix"/>
<feColorMatrix in="SourceAlpha" type="matrix" values="0 0 0 0 0 0 0 0 0 0 0 0 0 0 0 0 0 0 127 0" result="hardAlpha"/>
<feOffset dy="4"/>
<feGaussianBlur stdDeviation="2"/>
<feComposite in2="hardAlpha" operator="out"/>
<feColorMatrix type="matrix" values="0 0 0 0 0 0 0 0 0 0 0 0 0 0 0 0 0 0 0.25 0"/>
<feBlend mode="normal" in2="BackgroundImageFix" result="effect1_dropShadow_201_120"/>
<feBlend mode="normal" in="SourceGraphic" in2="effect1_dropShadow_201_120" result="shape"/>
</filter>
<filter id="filter39_d_201_120" x="77" y="463" width="28" height="28" filterUnits="userSpaceOnUse" color-interpolation-filters="sRGB">
<feFlood flood-opacity="0" result="BackgroundImageFix"/>
<feColorMatrix in="SourceAlpha" type="matrix" values="0 0 0 0 0 0 0 0 0 0 0 0 0 0 0 0 0 0 127 0" result="hardAlpha"/>
<feOffset dy="4"/>
<feGaussianBlur stdDeviation="2"/>
<feComposite in2="hardAlpha" operator="out"/>
<feColorMatrix type="matrix" values="0 0 0 0 0 0 0 0 0 0 0 0 0 0 0 0 0 0 0.25 0"/>
<feBlend mode="normal" in2="BackgroundImageFix" result="effect1_dropShadow_201_120"/>
<feBlend mode="normal" in="SourceGraphic" in2="effect1_dropShadow_201_120" result="shape"/>
</filter>
<filter id="filter40_d_201_120" x="103" y="463" width="28" height="28" filterUnits="userSpaceOnUse" color-interpolation-filters="sRGB">
<feFlood flood-opacity="0" result="BackgroundImageFix"/>
<feColorMatrix in="SourceAlpha" type="matrix" values="0 0 0 0 0 0 0 0 0 0 0 0 0 0 0 0 0 0 127 0" result="hardAlpha"/>
<feOffset dy="4"/>
<feGaussianBlur stdDeviation="2"/>
<feComposite in2="hardAlpha" operator="out"/>
<feColorMatrix type="matrix" values="0 0 0 0 0 0 0 0 0 0 0 0 0 0 0 0 0 0 0.25 0"/>
<feBlend mode="normal" in2="BackgroundImageFix" result="effect1_dropShadow_201_120"/>
<feBlend mode="normal" in="SourceGraphic" in2="effect1_dropShadow_201_120" result="shape"/>
</filter>
<filter id="filter41_d_201_120" x="129" y="463" width="28" height="28" filterUnits="userSpaceOnUse" color-interpolation-filters="sRGB">
<feFlood flood-opacity="0" result="BackgroundImageFix"/>
<feColorMatrix in="SourceAlpha" type="matrix" values="0 0 0 0 0 0 0 0 0 0 0 0 0 0 0 0 0 0 127 0" result="hardAlpha"/>
<feOffset dy="4"/>
<feGaussianBlur stdDeviation="2"/>
<feComposite in2="hardAlpha" operator="out"/>
<feColorMatrix type="matrix" values="0 0 0 0 0 0 0 0 0 0 0 0 0 0 0 0 0 0 0.25 0"/>
<feBlend mode="normal" in2="BackgroundImageFix" result="effect1_dropShadow_201_120"/>
<feBlend mode="normal" in="SourceGraphic" in2="effect1_dropShadow_201_120" result="shape"/>
</filter>
<filter id="filter42_d_201_120" x="155" y="463" width="28" height="28" filterUnits="userSpaceOnUse" color-interpolation-filters="sRGB">
<feFlood flood-opacity="0" result="BackgroundImageFix"/>
<feColorMatrix in="SourceAlpha" type="matrix" values="0 0 0 0 0 0 0 0 0 0 0 0 0 0 0 0 0 0 127 0" result="hardAlpha"/>
<feOffset dy="4"/>
<feGaussianBlur stdDeviation="2"/>
<feComposite in2="hardAlpha" operator="out"/>
<feColorMatrix type="matrix" values="0 0 0 0 0 0 0 0 0 0 0 0 0 0 0 0 0 0 0.25 0"/>
<feBlend mode="normal" in2="BackgroundImageFix" result="effect1_dropShadow_201_120"/>
<feBlend mode="normal" in="SourceGraphic" in2="effect1_dropShadow_201_120" result="shape"/>
</filter>
<filter id="filter43_d_201_120" x="181" y="463" width="28" height="28" filterUnits="userSpaceOnUse" color-interpolation-filters="sRGB">
<feFlood flood-opacity="0" result="BackgroundImageFix"/>
<feColorMatrix in="SourceAlpha" type="matrix" values="0 0 0 0 0 0 0 0 0 0 0 0 0 0 0 0 0 0 127 0" result="hardAlpha"/>
<feOffset dy="4"/>
<feGaussianBlur stdDeviation="2"/>
<feComposite in2="hardAlpha" operator="out"/>
<feColorMatrix type="matrix" values="0 0 0 0 0 0 0 0 0 0 0 0 0 0 0 0 0 0 0.25 0"/>
<feBlend mode="normal" in2="BackgroundImageFix" result="effect1_dropShadow_201_120"/>
<feBlend mode="normal" in="SourceGraphic" in2="effect1_dropShadow_201_120" result="shape"/>
</filter>
<filter id="filter44_d_201_120" x="234" y="332" width="44" height="44" filterUnits="userSpaceOnUse" color-interpolation-filters="sRGB">
<feFlood flood-opacity="0" result="BackgroundImageFix"/>
<feColorMatrix in="SourceAlpha" type="matrix" values="0 0 0 0 0 0 0 0 0 0 0 0 0 0 0 0 0 0 127 0" result="hardAlpha"/>
<feOffset dy="4"/>
<feGaussianBlur stdDeviation="2"/>
<feComposite in2="hardAlpha" operator="out"/>
<feColorMatrix type="matrix" values="0 0 0 0 0 0 0 0 0 0 0 0 0 0 0 0 0 0 0.25 0"/>
<feBlend mode="normal" in2="BackgroundImageFix" result="effect1_dropShadow_201_120"/>
<feBlend mode="normal" in="SourceGraphic" in2="effect1_dropShadow_201_120" result="shape"/>
</filter>
<filter id="filter45_d_201_120" x="234" y="332" width="44" height="44" filterUnits="userSpaceOnUse" color-interpolation-filters="sRGB">
<feFlood flood-opacity="0" result="BackgroundImageFix"/>
<feColorMatrix in="SourceAlpha" type="matrix" values="0 0 0 0 0 0 0 0 0 0 0 0 0 0 0 0 0 0 127 0" result="hardAlpha"/>
<feOffset dy="4"/>
<feGaussianBlur stdDeviation="2"/>
<feComposite in2="hardAlpha" operator="out"/>
<feColorMatrix type="matrix" values="0 0 0 0 0 0 0 0 0 0 0 0 0 0 0 0 0 0 0.25 0"/>
<feBlend mode="normal" in2="BackgroundImageFix" result="effect1_dropShadow_201_120"/>
<feBlend mode="normal" in="SourceGraphic" in2="effect1_dropShadow_201_120" result="shape"/>
</filter>
<filter id="filter46_d_201_120" x="234" y="284" width="44" height="44" filterUnits="userSpaceOnUse" color-interpolation-filters="sRGB">
<feFlood flood-opacity="0" result="BackgroundImageFix"/>
<feColorMatrix in="SourceAlpha" type="matrix" values="0 0 0 0 0 0 0 0 0 0 0 0 0 0 0 0 0 0 127 0" result="hardAlpha"/>
<feOffset dy="4"/>
<feGaussianBlur stdDeviation="2"/>
<feComposite in2="hardAlpha" operator="out"/>
<feColorMatrix type="matrix" values="0 0 0 0 0 0 0 0 0 0 0 0 0 0 0 0 0 0 0.25 0"/>
<feBlend mode="normal" in2="BackgroundImageFix" result="effect1_dropShadow_201_120"/>
<feBlend mode="normal" in="SourceGraphic" in2="effect1_dropShadow_201_120" result="shape"/>
</filter>
<filter id="filter47_d_201_120" x="234" y="284" width="44" height="44" filterUnits="userSpaceOnUse" color-interpolation-filters="sRGB">
<feFlood flood-opacity="0" result="BackgroundImageFix"/>
<feColorMatrix in="SourceAlpha" type="matrix" values="0 0 0 0 0 0 0 0 0 0 0 0 0 0 0 0 0 0 127 0" result="hardAlpha"/>
<feOffset dy="4"/>
<feGaussianBlur stdDeviation="2"/>
<feComposite in2="hardAlpha" operator="out"/>
<feColorMatrix type="matrix" values="0 0 0 0 0 0 0 0 0 0 0 0 0 0 0 0 0 0 0.25 0"/>
<feBlend mode="normal" in2="BackgroundImageFix" result="effect1_dropShadow_201_120"/>
<feBlend mode="normal" in="SourceGraphic" in2="effect1_dropShadow_201_120" result="shape"/>
</filter>
<filter id="filter48_d_201_120" x="109.648" y="140.608" width="291.567" height="64.544" filterUnits="userSpaceOnUse" color-interpolation-filters="sRGB">
<feFlood flood-opacity="0" result="BackgroundImageFix"/>
<feColorMatrix in="SourceAlpha" type="matrix" values="0 0 0 0 0 0 0 0 0 0 0 0 0 0 0 0 0 0 127 0" result="hardAlpha"/>
<feOffset dy="4"/>
<feGaussianBlur stdDeviation="2"/>
<feComposite in2="hardAlpha" operator="out"/>
<feColorMatrix type="matrix" values="0 0 0 0 0 0 0 0 0 0 0 0 0 0 0 0 0 0 0.25 0"/>
<feBlend mode="normal" in2="BackgroundImageFix" result="effect1_dropShadow_201_120"/>
<feBlend mode="normal" in="SourceGraphic" in2="effect1_dropShadow_201_120" result="shape"/>
</filter>
<linearGradient id="paint0_linear_201_120" x1="48" y1="139" x2="464" y2="139" gradientUnits="userSpaceOnUse">
<stop stop-color="#00C0C0"/>
<stop offset="1" stop-color="#00C000"/>
</linearGradient>
</defs>
</svg>
