<?xml version="1.0" encoding="UTF-8"?>
<svg xmlns="http://www.w3.org/2000/svg" xmlns:xlink="http://www.w3.org/1999/xlink" width="0" height="0">
<defs>
<symbol viewBox="0 0 24 24" fill="none" stroke="currentColor" stroke-width="2" stroke-linecap="round" stroke-linejoin="round" id="check">
  <polyline points="20 6 9 17 4 12" ></polyline>
</symbol>
<symbol viewBox="0 0 24 24" fill="none" stroke="currentColor" stroke-width="2" stroke-linecap="round" stroke-linejoin="round" id="chevron-down">
  <path d="m6 9 6 6 6-6" ></path>
</symbol>
<symbol viewBox="0 0 24 24" fill="none" stroke="currentColor" stroke-width="2" stroke-linecap="round" stroke-linejoin="round" id="chevron-right">
  <path d="m9 18 6-6-6-6" ></path>
</symbol>
<symbol viewBox="0 0 24 24" fill="none" stroke="currentColor" stroke-width="2" stroke-linecap="round" stroke-linejoin="round" id="circle">
  <circle cx="12" cy="12" r="10" ></circle>
</symbol>
<symbol fill="currentColor" role="img" viewBox="0 0 24 24" id="github"><title>GitHub</title><path d="M12 .297c-6.63 0-12 5.373-12 12 0 5.303 3.438 9.8 8.205 11.385.6.113.82-.258.82-.577 0-.285-.01-1.04-.015-2.04-3.338.724-4.042-1.61-4.042-1.61C4.422 18.07 3.633 17.7 3.633 17.7c-1.087-.744.084-.729.084-.729 1.205.084 1.838 1.236 1.838 1.236 1.07 1.835 2.809 1.305 3.495.998.108-.776.417-1.305.76-1.605-2.665-.3-5.466-1.332-5.466-5.93 0-1.31.465-2.38 1.235-3.22-.135-.303-.54-1.523.105-3.176 0 0 1.005-.322 3.3 1.23.96-.267 1.98-.399 3-.405 1.02.006 2.04.138 3 .405 2.28-1.552 3.285-1.23 3.285-1.23.645 1.653.24 2.873.12 3.176.765.84 1.23 1.91 1.23 3.22 0 4.61-2.805 5.625-5.475 5.92.42.36.81 1.096.81 2.22 0 1.606-.015 2.896-.015 3.286 0 .315.21.69.825.57C20.565 22.092 24 17.592 24 12.297c0-6.627-5.373-12-12-12"></path></symbol>
<symbol viewBox="0 0 24 24" fill="none" stroke="currentColor" stroke-width="2" stroke-linecap="round" stroke-linejoin="round" id="home">
  <path d="m3 9 9-7 9 7v11a2 2 0 0 1-2 2H5a2 2 0 0 1-2-2z" ></path>
  <polyline points="9 22 9 12 15 12 15 22" ></polyline>
</symbol>
<symbol fill="currentColor" role="img" viewBox="0 0 24 24" id="instagram"><title>Instagram</title><path d="M12 0C8.74 0 8.333.015 7.053.072 5.775.132 4.905.333 4.14.63c-.789.306-1.459.717-2.126 1.384S.935 3.35.63 4.14C.333 4.905.131 5.775.072 7.053.012 8.333 0 8.74 0 12s.015 3.667.072 4.947c.06 1.277.261 2.148.558 2.913.306.788.717 1.459 1.384 2.126.667.666 1.336 1.079 2.126 1.384.766.296 1.636.499 2.913.558C8.333 23.988 8.74 24 12 24s3.667-.015 4.947-.072c1.277-.06 2.148-.262 2.913-.558.788-.306 1.459-.718 2.126-1.384.666-.667 1.079-1.335 1.384-2.126.296-.765.499-1.636.558-2.913.06-1.28.072-1.687.072-4.947s-.015-3.667-.072-4.947c-.06-1.277-.262-2.149-.558-2.913-.306-.789-.718-1.459-1.384-2.126C21.319 1.347 20.651.935 19.86.63c-.765-.297-1.636-.499-2.913-.558C15.667.012 15.26 0 12 0zm0 2.16c3.203 0 3.585.016 4.85.071 1.17.055 1.805.249 2.227.415.562.217.96.477 1.382.896.419.42.679.819.896 1.381.164.422.36 1.057.413 2.227.057 1.266.07 1.646.07 4.85s-.015 3.585-.074 4.85c-.061 1.17-.256 1.805-.421 2.227-.224.562-.479.96-.899 1.382-.419.419-.824.679-1.38.896-.42.164-1.065.36-2.235.413-1.274.057-1.649.07-4.859.07-3.211 0-3.586-.015-4.859-.074-1.171-.061-1.816-.256-2.236-.421-.569-.224-.96-.479-1.379-.899-.421-.419-.69-.824-.9-1.38-.165-.42-.359-1.065-.42-2.235-.045-1.26-.061-1.649-.061-4.844 0-3.196.016-3.586.061-4.861.061-1.17.255-1.814.42-2.234.21-.57.479-.96.9-1.381.419-.419.81-.689 1.379-.898.42-.166 1.051-.361 2.221-.421 1.275-.045 1.65-.06 4.859-.06l.045.03zm0 3.678c-3.405 0-6.162 2.76-6.162 6.162 0 3.405 2.76 6.162 6.162 6.162 3.405 0 6.162-2.76 6.162-6.162 0-3.405-2.76-6.162-6.162-6.162zM12 16c-2.21 0-4-1.79-4-4s1.79-4 4-4 4 1.79 4 4-1.79 4-4 4zm7.846-10.405c0 .795-.646 1.44-1.44 1.44-.795 0-1.44-.646-1.44-1.44 0-.794.646-1.439 1.44-1.439.793-.001 1.44.645 1.44 1.439z"></path></symbol>
<symbol viewBox="0 0 24 24" fill="none" stroke="currentColor" stroke-width="2" stroke-linecap="round" stroke-linejoin="round" id="log-out">
  <path d="M9 21H5a2 2 0 0 1-2-2V5a2 2 0 0 1 2-2h4" ></path>
  <polyline points="16 17 21 12 16 7" ></polyline>
  <line x1="21" x2="9" y1="12" y2="12" ></line>
</symbol>
<symbol fill="currentColor" role="img" viewBox="0 0 24 24" id="spotify"><title>Spotify</title><path d="M12 0C5.4 0 0 5.4 0 12s5.4 12 12 12 12-5.4 12-12S18.66 0 12 0zm5.521 17.34c-.24.359-.66.48-1.021.24-2.82-1.74-6.36-2.101-10.561-1.141-.418.122-.779-.179-.899-.539-.12-.421.18-.78.54-.9 4.56-1.021 8.52-.6 11.64 1.32.42.18.479.659.301 1.02zm1.44-3.3c-.301.42-.841.6-1.262.3-3.239-1.98-8.159-2.58-11.939-1.38-.479.12-1.02-.12-1.14-.6-.12-.48.12-1.021.6-1.141C9.6 9.9 15 10.561 18.72 12.84c.361.181.54.78.241 1.2zm.12-3.36C15.24 8.4 8.82 8.16 5.16 9.301c-.6.179-1.2-.181-1.38-.721-.18-.601.18-1.2.72-1.381 4.26-1.26 11.28-1.02 15.721 1.621.539.3.719 1.02.419 1.56-.299.421-1.02.599-1.559.3z"></path></symbol>
<symbol viewBox="0 0 24 24" fill="none" stroke="currentColor" stroke-width="2" stroke-linecap="round" stroke-linejoin="round" id="tv-2">
  <path d="M7 21h10" ></path>
  <rect width="20" height="14" x="2" y="3" rx="2" ></rect>
</symbol>
<symbol fill="currentColor" role="img" viewBox="0 0 24 24" id="twitch"><title>Twitch</title><path d="M11.571 4.714h1.715v5.143H11.57zm4.715 0H18v5.143h-1.714zM6 0L1.714 4.286v15.428h5.143V24l4.286-4.286h3.428L22.286 12V0zm14.571 11.143l-3.428 3.428h-3.429l-3 3v-3H6.857V1.714h13.714Z"></path></symbol>
<symbol fill="currentColor" role="img" viewBox="0 0 24 24" id="twitter"><title>Twitter</title><path d="M21.543 7.104c.015.211.015.423.015.636 0 6.507-4.954 14.01-14.01 14.01v-.003A13.94 13.94 0 0 1 0 19.539a9.88 9.88 0 0 0 7.287-2.041 4.93 4.93 0 0 1-4.6-3.42 4.916 4.916 0 0 0 2.223-.084A4.926 4.926 0 0 1 .96 9.167v-.062a4.887 4.887 0 0 0 2.235.616A4.928 4.928 0 0 1 1.67 3.148 13.98 13.98 0 0 0 11.82 8.292a4.929 4.929 0 0 1 8.39-4.49 9.868 9.868 0 0 0 3.128-1.196 4.941 4.941 0 0 1-2.165 2.724A9.828 9.828 0 0 0 24 4.555a10.019 10.019 0 0 1-2.457 2.549z"></path></symbol>
<symbol viewBox="0 0 24 24" fill="none" stroke="currentColor" stroke-width="2" stroke-linecap="round" stroke-linejoin="round" id="user-square-2">
  <path d="M18 21a6 6 0 0 0-12 0" ></path>
  <circle cx="12" cy="11" r="4" ></circle>
  <rect width="18" height="18" x="3" y="3" rx="2" ></rect>
</symbol>
<symbol viewBox="0 0 24 24" fill="none" stroke="currentColor" stroke-width="2" stroke-linecap="round" stroke-linejoin="round" id="user">
  <path d="M19 21v-2a4 4 0 0 0-4-4H9a4 4 0 0 0-4 4v2" ></path>
  <circle cx="12" cy="7" r="4" ></circle>
</symbol>
<symbol viewBox="0 0 24 24" fill="none" stroke="currentColor" stroke-width="2" stroke-linecap="round" stroke-linejoin="round" id="video">
  <path d="m22 8-6 4 6 4V8Z" ></path>
  <rect width="14" height="12" x="2" y="6" rx="2" ry="2" ></rect>
</symbol>
<symbol viewBox="0 0 24 24" fill="none" stroke="currentColor" stroke-width="2" stroke-linecap="round" stroke-linejoin="round" id="x">
  <path d="M18 6 6 18" ></path>
  <path d="m6 6 12 12" ></path>
</symbol>
<symbol fill="currentColor" role="img" viewBox="0 0 24 24" id="youtube"><title>YouTube</title><path d="M23.498 6.186a3.016 3.016 0 0 0-2.122-2.136C19.505 3.545 12 3.545 12 3.545s-7.505 0-9.377.505A3.017 3.017 0 0 0 .502 6.186C0 8.07 0 12 0 12s0 3.93.502 5.814a3.016 3.016 0 0 0 2.122 2.136c1.871.505 9.376.505 9.376.505s7.505 0 9.377-.505a3.015 3.015 0 0 0 2.122-2.136C24 15.93 24 12 24 12s0-3.93-.502-5.814zM9.545 15.568V8.432L15.818 12l-6.273 3.568z"></path></symbol>
</defs>
</svg>