<?xml version="1.0" encoding="UTF-8"?>
<svg xmlns="http://www.w3.org/2000/svg" xmlns:xlink="http://www.w3.org/1999/xlink" width="0" height="0">
<defs>
<symbol viewBox="0 0 24 24" fill="none" stroke="currentColor" stroke-width="2" stroke-linecap="round" stroke-linejoin="round" id="check">
  <polyline points="20 6 9 17 4 12" ></polyline>
</symbol>
<symbol viewBox="0 0 24 24" fill="none" stroke="currentColor" stroke-width="2" stroke-linecap="round" stroke-linejoin="round" id="chevron-down">
  <path d="m6 9 6 6 6-6" ></path>
</symbol>
<symbol viewBox="0 0 24 24" fill="none" stroke="currentColor" stroke-width="2" stroke-linecap="round" stroke-linejoin="round" id="chevron-right">
  <path d="m9 18 6-6-6-6" ></path>
</symbol>
<symbol viewBox="0 0 24 24" fill="none" stroke="currentColor" stroke-width="2" stroke-linecap="round" stroke-linejoin="round" id="circle">
  <circle cx="12" cy="12" r="10" ></circle>
</symbol>
<symbol viewBox="0 0 301 43" id="crl-full-horizontal">
  <title>Cockroach Labs</title>
  <path     d="M85.5 24.25c0 5.88-3.82 9.93-9.29 9.93-5.47 0-9.32-4.05-9.32-9.93s3.82-9.94 9.32-9.94 9.29 4.05 9.29 9.94zm-15.25 0c0 4.24 2.33 7.18 6 7.18s5.93-2.94 5.93-7.18-2.3-7.19-5.93-7.19-6 2.94-6 7.19zM135.89 18a9.197 9.197 0 0 0-2.49-.39c-2.52 0-4.4 2.18-4.4 6v10.04h-3.28V14.84h3.09v2.83a5.083 5.083 0 0 1 4.66-3.14 5.29 5.29 0 0 1 2.41.47l.01 3zM155.57 24.25c0 5.88-3.82 9.93-9.29 9.93-5.47 0-9.28-4.05-9.28-9.93s3.82-9.94 9.32-9.94 9.25 4.05 9.25 9.94zm-15.25 0c0 4.24 2.33 7.18 6 7.18s5.92-2.94 5.92-7.18-2.29-7.19-5.92-7.19-6 2.94-6 7.19zM166.93 14.31a12.63 12.63 0 0 0-7.62 2.83v3.4c1.54-1.25 4.43-3.54 7.69-3.54a4.75 4.75 0 0 1 3.43 1.2c.285.286.509.626.66 1a1.997 1.997 0 0 1-.645 2.448c-.248.18-.534.3-.835.352l-2.38.43c-4.7.84-8.75 2.14-8.75 6.53 0 3.75 3.06 5.28 6.73 5.28 2.82 0 5.12-1 6.38-2.94v2.33h3V20.58c-.02-3.67-2.7-6.27-7.66-6.27zm4.51 9.69v2.64c0 3.1-2.64 4.93-5.89 4.93-2.41 0-3.86-.95-3.86-2.67a2.68 2.68 0 0 1 .8-2c1.87-1.9 7.4-1.9 8.95-2.9zM212.17 20.77v12.88h-3.28V21.8c0-3.1-1.53-4.7-4.32-4.7a4.8 4.8 0 0 0-4.86 4.9v11.65h-3.28V8.72h3.28V17a6.839 6.839 0 0 1 5.74-2.67c4.55-.02 6.72 2.92 6.72 6.44zM229.6 30.67h11v3h-14.52V8.72h3.52v21.95zM281.77 24.25c0 6-3.52 9.89-8.29 9.89a7.002 7.002 0 0 1-6.42-3.32v2.83H264V8.72h3.29v8.76a6.998 6.998 0 0 1 6.23-3.13c4.81 0 8.25 3.93 8.25 9.9zm-3.36 0c0-4.25-2.14-7.11-5.43-7.11-3.29 0-5.85 2.63-5.85 7.11s2.49 7.07 5.85 7.07c3.36 0 5.43-2.83 5.43-7.07zM102.39 29.55a9.64 9.64 0 0 1-4.9 1.63c-4.93 0-5.77-5.13-5.77-7 0-1 .34-6.94 5.91-6.94 1.659.05 3.285.47 4.76 1.23v-3a10.161 10.161 0 0 0-4.92-1.28c-5.79 0-9.13 4.73-9.13 9.79 0 8.79 6.57 10.14 9 10.14a9.91 9.91 0 0 0 5.07-1.34l-.02-3.23zM192.33 29.55a9.64 9.64 0 0 1-4.9 1.63c-4.92 0-5.76-5.13-5.76-7 0-1 .34-6.94 5.9-6.94 1.658.05 3.285.47 4.76 1.23v-3a10.131 10.131 0 0 0-4.91-1.28c-5.8 0-9.14 4.73-9.14 9.79 0 8.79 6.57 10.14 9 10.14a9.911 9.911 0 0 0 5.07-1.34l-.02-3.23zM119.45 33.65h3.67l-7.55-11.3a31.723 31.723 0 0 0 4.66-7.51h-3.58a28.644 28.644 0 0 1-6.85 8.8V8.72h-3.3v24.93h3.29v-5.88a32.556 32.556 0 0 0 3.68-3.14l5.98 9.02zM252 14.31a12.609 12.609 0 0 0-7.61 2.83v3.4c1.61-1.25 4.45-3.54 7.75-3.54a4.71 4.71 0 0 1 3.42 1.2c.287.286.515.626.67 1a2.003 2.003 0 0 1-.673 2.46 1.998 1.998 0 0 1-.847.34l-2.38.43c-4.7.84-8.75 2.14-8.75 6.53 0 3.75 3.06 5.28 6.72 5.28 2.83 0 5.13-1 6.39-2.94v2.33h3V20.58c-.02-3.67-2.69-6.27-7.69-6.27zm4.53 9.69v2.64c0 3.1-2.63 4.93-5.88 4.93-2.41 0-3.86-.95-3.86-2.67a2.704 2.704 0 0 1 .79-2c1.88-1.9 7.42-1.9 8.95-2.9zM292.89 22.56c-3.44-.76-5-1.14-5-2.79 0-1.65 1.52-2.77 4.11-2.77 2.27 0 3.79.6 6.86 2.88v-3.47a10.891 10.891 0 0 0-6.86-2.1c-4.35 0-7.29 2.29-7.29 5.58 0 3.13 1.83 4.24 6.84 5.31 3 .65 5.27 1.22 5.27 3.29 0 1.87-1.83 3-4.28 3s-3.86-.73-7.54-3.49v3.62a11.258 11.258 0 0 0 7.49 2.54c4.55 0 7.53-2.37 7.53-5.85-.02-3.31-2.24-4.64-7.13-5.75zM56 31c-8.43 0-8.3-8.81-8.3-9.83 0-9.38 7.09-9.65 8.59-9.65a11 11 0 0 1 7.47 3v-3.85a12.77 12.77 0 0 0-7.46-2.44c-4.48 0-12.06 2.72-12.06 12.94a16.09 16.09 0 0 0 2 7.62A10.67 10.67 0 0 0 56 34.17a12 12 0 0 0 7.76-2.72v-3.81C61 29.83 59.44 31 56 31zM27 28.6a23 23 0 0 0-7.93-23.52 20.53 20.53 0 0 1 10.29-2.74 21.3 21.3 0 0 1 4.08.4L34 .47a23.09 23.09 0 0 0-17 3.12A22.9 22.9 0 0 0 4.65 0C3.088 0 1.53.157 0 .47l.57 2.27a21.22 21.22 0 0 1 4.08-.4 20.53 20.53 0 0 1 10.29 2.74 23 23 0 0 0 1.4 37l.66.45.66-.45A23 23 0 0 0 27 28.6zM15.83 38.69a20.73 20.73 0 0 1-6.22-21.84A23.186 23.186 0 0 0 14 22.12a5.66 5.66 0 0 1 1.87 4.22l-.04 12.35zM17 21.59a20.668 20.668 0 0 1-4.14-4.11 5.72 5.72 0 0 1 0-6.92A20.82 20.82 0 0 1 17 6.43a20.69 20.69 0 0 1 4.21 4.2 5.65 5.65 0 0 1 0 6.78A20.797 20.797 0 0 1 17 21.59zm1.17 17.1V26.34A5.699 5.699 0 0 1 20 22.12a22.927 22.927 0 0 0 4.35-5.27 20.66 20.66 0 0 1-6.22 21.84h.04z"
    fill="currentColor"
  ></path>
</symbol>
<symbol fill="none" viewBox="0 0 80 80" id="crl-shorthand">
  <title>Cockroach Labs</title>
  <g clip-path="url(#a)" fill="currentColor">
    <path d="M36.1 43c-2.2-2-4.1-4.3-5.7-6.9l-.2-.3-.1.3c-.8 2.6-1.2 5.4-1.2 8.2 0 7.9 3.5 15.5 9.5 20.7l.3.2V48.6c-.1-2.1-1-4.2-2.6-5.6ZM43.9 43c-1.6 1.4-2.5 3.5-2.5 5.7v16.6l.3-.2c6-5.2 9.5-12.7 9.5-20.7 0-2.8-.4-5.5-1.2-8.2l-.1-.3-.2.3C48 38.7 46.1 41 43.9 43Z" ></path>
    <path d="M40 0C17.9 0 0 17.9 0 40s17.9 40 40 40 40-17.9 40-40S62.1 0 40 0Zm21.5 17.5c-1.7-.3-3.5-.5-5.2-.5-4.8 0-9.5 1.3-13.6 3.6l-.2.1.2.1C49.9 26.5 54 35.1 54 44.3c0 2.5-.3 4.9-.9 7.3C51.3 58.7 47 65 40.9 69.2l-.9.5-.8-.5c-8.2-5.7-13.1-15-13.1-24.9 0-9.2 4.1-17.7 11.3-23.5l.2-.1-.2-.1c-4.1-2.4-8.8-3.6-13.6-3.6-1.8 0-3.5.2-5.2.5l-.7-2.7c1.9-.4 3.9-.6 5.9-.6 5.7 0 11.3 1.6 16.2 4.7l.1.1.1-.1c4.8-3.1 10.4-4.7 16.2-4.7 2 0 4 .2 5.9.6l-.8 2.7Z" ></path>
    <path d="M40 22.3c-2.2 1.6-4 3.5-5.6 5.5-2.1 2.7-2.1 6.5 0 9.3 1.6 2.1 3.4 3.9 5.5 5.4l.1.1.1-.1c2.1-1.6 4-3.4 5.5-5.5 2-2.7 2-6.4 0-9.1-1.5-2.1-3.4-4-5.6-5.6Z" ></path>
  </g>
  <defs>
    <clipPath id="a">
      <path d="M0 0h80v80H0z" fill="#fff" ></path>
    </clipPath>
  </defs>
</symbol>
<symbol viewBox="0 0 129 101" id="crl-stacked">
  <title>Cockroach Labs</title>
  <path     d="M36.06 97.25h8.45v2.28H33.37V80.45h2.69v16.8zM76 92.34c0 4.56-2.7 7.57-6.35 7.57a5.37 5.37 0 0 1-4.92-2.54v2.16h-2.37V80.45h2.52v6.71a5.38 5.38 0 0 1 4.77-2.4c3.71 0 6.35 3.01 6.35 7.58zm-2.58 0c0-3.25-1.64-5.45-4.15-5.45-2.51 0-4.48 2-4.48 5.45s1.9 5.41 4.48 5.41c2.58 0 4.15-2.17 4.15-5.41zM53.23 84.73a9.71 9.71 0 0 0-5.83 2.16v2.61c1.18-1 3.39-2.69 5.91-2.69a3.68 3.68 0 0 1 2.63.91 2.5 2.5 0 0 1 .51.75 1.571 1.571 0 0 1-1.17 2.16l-1.82.37c-3.6.64-6.7 1.64-6.7 5 0 2.87 2.34 4 5.15 4a5.62 5.62 0 0 0 4.89-2.25v1.78h2.28v-10c0-2.81-2.08-4.8-5.85-4.8zm3.45 7.39v2c0 2.37-2 3.77-4.51 3.77-1.84 0-3-.73-3-2a2.058 2.058 0 0 1 .61-1.54c1.48-1.45 5.71-1.42 6.9-2.23zM84.51 91.05c-2.63-.59-3.86-.88-3.86-2.14 0-1.26 1.2-2.13 3.16-2.13 1.73 0 2.9.45 5.24 2.2v-2.64a8.3 8.3 0 0 0-5.24-1.61c-3.34 0-5.59 1.76-5.59 4.27s1.4 3.25 5.24 4.07c2.31.49 4 .93 4 2.51 0 1.58-1.4 2.28-3.27 2.28s-2.93-.54-5.76-2.63V98a8.621 8.621 0 0 0 5.74 1.94c3.48 0 5.76-1.81 5.76-4.47 0-2.66-1.68-3.57-5.42-4.42zM31.58 69.26c0 4.51-2.93 7.61-7.11 7.61s-7.14-3.1-7.14-7.61 2.93-7.6 7.14-7.6c4.21 0 7.11 3.1 7.11 7.6zm-11.67 0c0 3.25 1.78 5.5 4.56 5.5 2.78 0 4.53-2.25 4.53-5.5s-1.75-5.5-4.53-5.5c-2.78 0-4.56 2.24-4.56 5.5zM70.15 64.45a6.624 6.624 0 0 0-1.91-.31c-1.93 0-3.36 1.67-3.36 4.6v7.72h-2.52V62.07h2.37v2.16a3.9 3.9 0 0 1 3.57-2.4 4.19 4.19 0 0 1 1.85.35v2.27zM85.21 69.26c0 4.51-2.92 7.61-7.11 7.61s-7.1-3.1-7.1-7.61 2.92-7.6 7.13-7.6 7.08 3.1 7.08 7.6zm-11.67 0c0 3.25 1.79 5.5 4.56 5.5 2.77 0 4.54-2.25 4.54-5.5s-1.76-5.5-4.54-5.5c-2.78 0-4.56 2.24-4.56 5.5zM93.91 61.66a9.64 9.64 0 0 0-5.83 2.16v2.6c1.18-1 3.39-2.69 5.92-2.69a3.63 3.63 0 0 1 2.62.92c.217.215.39.47.51.75A1.572 1.572 0 0 1 96 67.56l-1.83.33c-3.6.64-6.7 1.64-6.7 5 0 2.87 2.34 4 5.15 4a5.59 5.59 0 0 0 4.89-2.26v1.79h2.28v-10c-.03-2.77-2.08-4.76-5.88-4.76zm3.45 7.39v2c0 2.37-2 3.77-4.51 3.77-1.84 0-2.95-.73-2.95-2a2.08 2.08 0 0 1 .61-1.54c1.43-1.45 5.66-1.43 6.85-2.23zM128.54 66.6v9.86H126v-9.07c0-2.37-1.17-3.6-3.31-3.6a3.669 3.669 0 0 0-3.69 3.75v8.92h-2.52V57.38H119v6.33a5.18 5.18 0 0 1 4.38-2.05c3.49 0 5.16 2.25 5.16 4.94zM44.51 73.33a7.41 7.41 0 0 1-3.76 1.24c-3.76 0-4.41-3.93-4.41-5.34 0-.78.26-5.31 4.52-5.31a8.54 8.54 0 0 1 3.65.94v-2.28a7.788 7.788 0 0 0-3.77-1c-4.43 0-7 3.61-7 7.49 0 6.73 5 7.76 6.88 7.76a7.58 7.58 0 0 0 3.88-1l.01-2.5zM113.35 73.33a7.363 7.363 0 0 1-3.75 1.24c-3.77 0-4.41-3.93-4.41-5.34 0-.78.26-5.31 4.52-5.31a8.472 8.472 0 0 1 3.64.94v-2.28a7.76 7.76 0 0 0-3.76-1c-4.43 0-7 3.61-7 7.49 0 6.73 5 7.76 6.87 7.76a7.53 7.53 0 0 0 3.88-1l.01-2.5zM57.57 76.46h2.81l-5.78-8.65a24.931 24.931 0 0 0 3.57-5.74h-2.76a22 22 0 0 1-5.24 6.73V57.38h-2.52v19.08h2.52V72A25.137 25.137 0 0 0 53 69.56l4.57 6.9zM9 74.43c-6.46 0-6.36-6.74-6.36-7.52 0-7.18 5.43-7.38 6.58-7.38a8.42 8.42 0 0 1 5.71 2.27v-2.93A9.77 9.77 0 0 0 9.23 57C5.8 57 0 59.09 0 66.91a12.28 12.28 0 0 0 1.52 5.83A8.16 8.16 0 0 0 9 76.86a9.19 9.19 0 0 0 5.93-2.08v-2.92c-2.15 1.68-3.3 2.57-5.93 2.57zM75 30.73a24.78 24.78 0 0 0-8.51-25.28A22.2 22.2 0 0 1 81.93 3l.61-2.5a25.14 25.14 0 0 0-5-.5 24.6 24.6 0 0 0-13.27 3.86A24.58 24.58 0 0 0 51 0c-1.68 0-3.354.167-5 .5l.61 2.5a22.2 22.2 0 0 1 15.44 2.5 24.75 24.75 0 0 0 1.51 39.71l.71.49.71-.49A24.82 24.82 0 0 0 75 30.73zM63 41.57a22.259 22.259 0 0 1-6.68-23.46A25.118 25.118 0 0 0 61 23.77a6.05 6.05 0 0 1 2 4.53v13.27zm1.27-18.37a22.19 22.19 0 0 1-4.45-4.42 6.14 6.14 0 0 1 0-7.43 22.08 22.08 0 0 1 4.46-4.44 22.46 22.46 0 0 1 4.52 4.51 6.09 6.09 0 0 1 0 7.29 22.058 22.058 0 0 1-4.53 4.49zm1.26 18.37V28.3a6.05 6.05 0 0 1 2-4.53 25.12 25.12 0 0 0 4.67-5.66 22.002 22.002 0 0 1 1 6.64 22.24 22.24 0 0 1-7.67 16.82z"
    fill="currentColor"
  ></path>
</symbol>
<symbol fill="currentColor" role="img" viewBox="0 0 24 24" id="github"><title>GitHub</title><path d="M12 .297c-6.63 0-12 5.373-12 12 0 5.303 3.438 9.8 8.205 11.385.6.113.82-.258.82-.577 0-.285-.01-1.04-.015-2.04-3.338.724-4.042-1.61-4.042-1.61C4.422 18.07 3.633 17.7 3.633 17.7c-1.087-.744.084-.729.084-.729 1.205.084 1.838 1.236 1.838 1.236 1.07 1.835 2.809 1.305 3.495.998.108-.776.417-1.305.76-1.605-2.665-.3-5.466-1.332-5.466-5.93 0-1.31.465-2.38 1.235-3.22-.135-.303-.54-1.523.105-3.176 0 0 1.005-.322 3.3 1.23.96-.267 1.98-.399 3-.405 1.02.006 2.04.138 3 .405 2.28-1.552 3.285-1.23 3.285-1.23.645 1.653.24 2.873.12 3.176.765.84 1.23 1.91 1.23 3.22 0 4.61-2.805 5.625-5.475 5.92.42.36.81 1.096.81 2.22 0 1.606-.015 2.896-.015 3.286 0 .315.21.69.825.57C20.565 22.092 24 17.592 24 12.297c0-6.627-5.373-12-12-12"></path></symbol>
<symbol viewBox="0 0 24 24" fill="none" stroke="currentColor" stroke-width="2" stroke-linecap="round" stroke-linejoin="round" id="home">
  <path d="m3 9 9-7 9 7v11a2 2 0 0 1-2 2H5a2 2 0 0 1-2-2z" ></path>
  <polyline points="9 22 9 12 15 12 15 22" ></polyline>
</symbol>
<symbol fill="currentColor" role="img" viewBox="0 0 24 24" id="instagram"><title>Instagram</title><path d="M12 0C8.74 0 8.333.015 7.053.072 5.775.132 4.905.333 4.14.63c-.789.306-1.459.717-2.126 1.384S.935 3.35.63 4.14C.333 4.905.131 5.775.072 7.053.012 8.333 0 8.74 0 12s.015 3.667.072 4.947c.06 1.277.261 2.148.558 2.913.306.788.717 1.459 1.384 2.126.667.666 1.336 1.079 2.126 1.384.766.296 1.636.499 2.913.558C8.333 23.988 8.74 24 12 24s3.667-.015 4.947-.072c1.277-.06 2.148-.262 2.913-.558.788-.306 1.459-.718 2.126-1.384.666-.667 1.079-1.335 1.384-2.126.296-.765.499-1.636.558-2.913.06-1.28.072-1.687.072-4.947s-.015-3.667-.072-4.947c-.06-1.277-.262-2.149-.558-2.913-.306-.789-.718-1.459-1.384-2.126C21.319 1.347 20.651.935 19.86.63c-.765-.297-1.636-.499-2.913-.558C15.667.012 15.26 0 12 0zm0 2.16c3.203 0 3.585.016 4.85.071 1.17.055 1.805.249 2.227.415.562.217.96.477 1.382.896.419.42.679.819.896 1.381.164.422.36 1.057.413 2.227.057 1.266.07 1.646.07 4.85s-.015 3.585-.074 4.85c-.061 1.17-.256 1.805-.421 2.227-.224.562-.479.96-.899 1.382-.419.419-.824.679-1.38.896-.42.164-1.065.36-2.235.413-1.274.057-1.649.07-4.859.07-3.211 0-3.586-.015-4.859-.074-1.171-.061-1.816-.256-2.236-.421-.569-.224-.96-.479-1.379-.899-.421-.419-.69-.824-.9-1.38-.165-.42-.359-1.065-.42-2.235-.045-1.26-.061-1.649-.061-4.844 0-3.196.016-3.586.061-4.861.061-1.17.255-1.814.42-2.234.21-.57.479-.96.9-1.381.419-.419.81-.689 1.379-.898.42-.166 1.051-.361 2.221-.421 1.275-.045 1.65-.06 4.859-.06l.045.03zm0 3.678c-3.405 0-6.162 2.76-6.162 6.162 0 3.405 2.76 6.162 6.162 6.162 3.405 0 6.162-2.76 6.162-6.162 0-3.405-2.76-6.162-6.162-6.162zM12 16c-2.21 0-4-1.79-4-4s1.79-4 4-4 4 1.79 4 4-1.79 4-4 4zm7.846-10.405c0 .795-.646 1.44-1.44 1.44-.795 0-1.44-.646-1.44-1.44 0-.794.646-1.439 1.44-1.439.793-.001 1.44.645 1.44 1.439z"></path></symbol>
<symbol viewBox="0 0 24 24" fill="none" stroke="currentColor" stroke-width="2" stroke-linecap="round" stroke-linejoin="round" id="log-out">
  <path d="M9 21H5a2 2 0 0 1-2-2V5a2 2 0 0 1 2-2h4" ></path>
  <polyline points="16 17 21 12 16 7" ></polyline>
  <line x1="21" x2="9" y1="12" y2="12" ></line>
</symbol>
<symbol fill="currentColor" role="img" viewBox="0 0 24 24" id="spotify"><title>Spotify</title><path d="M12 0C5.4 0 0 5.4 0 12s5.4 12 12 12 12-5.4 12-12S18.66 0 12 0zm5.521 17.34c-.24.359-.66.48-1.021.24-2.82-1.74-6.36-2.101-10.561-1.141-.418.122-.779-.179-.899-.539-.12-.421.18-.78.54-.9 4.56-1.021 8.52-.6 11.64 1.32.42.18.479.659.301 1.02zm1.44-3.3c-.301.42-.841.6-1.262.3-3.239-1.98-8.159-2.58-11.939-1.38-.479.12-1.02-.12-1.14-.6-.12-.48.12-1.021.6-1.141C9.6 9.9 15 10.561 18.72 12.84c.361.181.54.78.241 1.2zm.12-3.36C15.24 8.4 8.82 8.16 5.16 9.301c-.6.179-1.2-.181-1.38-.721-.18-.601.18-1.2.72-1.381 4.26-1.26 11.28-1.02 15.721 1.621.539.3.719 1.02.419 1.56-.299.421-1.02.599-1.559.3z"></path></symbol>
<symbol viewBox="0 0 24 24" fill="none" stroke="currentColor" stroke-width="2" stroke-linecap="round" stroke-linejoin="round" id="tv-2">
  <path d="M7 21h10" ></path>
  <rect width="20" height="14" x="2" y="3" rx="2" ></rect>
</symbol>
<symbol fill="currentColor" role="img" viewBox="0 0 24 24" id="twitch"><title>Twitch</title><path d="M11.571 4.714h1.715v5.143H11.57zm4.715 0H18v5.143h-1.714zM6 0L1.714 4.286v15.428h5.143V24l4.286-4.286h3.428L22.286 12V0zm14.571 11.143l-3.428 3.428h-3.429l-3 3v-3H6.857V1.714h13.714Z"></path></symbol>
<symbol fill="currentColor" role="img" viewBox="0 0 24 24" id="twitter"><title>Twitter</title><path d="M21.543 7.104c.015.211.015.423.015.636 0 6.507-4.954 14.01-14.01 14.01v-.003A13.94 13.94 0 0 1 0 19.539a9.88 9.88 0 0 0 7.287-2.041 4.93 4.93 0 0 1-4.6-3.42 4.916 4.916 0 0 0 2.223-.084A4.926 4.926 0 0 1 .96 9.167v-.062a4.887 4.887 0 0 0 2.235.616A4.928 4.928 0 0 1 1.67 3.148 13.98 13.98 0 0 0 11.82 8.292a4.929 4.929 0 0 1 8.39-4.49 9.868 9.868 0 0 0 3.128-1.196 4.941 4.941 0 0 1-2.165 2.724A9.828 9.828 0 0 0 24 4.555a10.019 10.019 0 0 1-2.457 2.549z"></path></symbol>
<symbol viewBox="0 0 24 24" fill="none" stroke="currentColor" stroke-width="2" stroke-linecap="round" stroke-linejoin="round" id="user">
  <path d="M19 21v-2a4 4 0 0 0-4-4H9a4 4 0 0 0-4 4v2" ></path>
  <circle cx="12" cy="7" r="4" ></circle>
</symbol>
<symbol viewBox="0 0 24 24" fill="none" stroke="currentColor" stroke-width="2" stroke-linecap="round" stroke-linejoin="round" id="video">
  <path d="m22 8-6 4 6 4V8Z" ></path>
  <rect width="14" height="12" x="2" y="6" rx="2" ry="2" ></rect>
</symbol>
<symbol viewBox="0 0 24 24" fill="none" stroke="currentColor" stroke-width="2" stroke-linecap="round" stroke-linejoin="round" id="x">
  <path d="M18 6 6 18" ></path>
  <path d="m6 6 12 12" ></path>
</symbol>
<symbol fill="currentColor" role="img" viewBox="0 0 24 24" id="youtube"><title>YouTube</title><path d="M23.498 6.186a3.016 3.016 0 0 0-2.122-2.136C19.505 3.545 12 3.545 12 3.545s-7.505 0-9.377.505A3.017 3.017 0 0 0 .502 6.186C0 8.07 0 12 0 12s0 3.93.502 5.814a3.016 3.016 0 0 0 2.122 2.136c1.871.505 9.376.505 9.376.505s7.505 0 9.377-.505a3.015 3.015 0 0 0 2.122-2.136C24 15.93 24 12 24 12s0-3.93-.502-5.814zM9.545 15.568V8.432L15.818 12l-6.273 3.568z"></path></symbol>
</defs>
</svg>